<svg xmlns="http://www.w3.org/2000/svg" width="106.37" height="113.13" viewBox="0 0 106.37 113.13"><path fill="#67bfd6" d="M53.227 19.378c.17.103.219.122.221.23v16.62c-.16 14.195.336 55.838-.186 58.03-1.372.013-3.364.001-4.814.012-2.577.09-5.191.305-7.811.012-.783-.14-.972-.843-.962-1.543-.092-4.422-.101-1.469-.233-5.82-.204-2.204-2.316-4.22-4.544-4.237a112 112 0 0 0-8.974-.188c-2.058.152-3.86-1.245-4.39-3.252-.345-1.23.042-2.226-.018-3.396-.023-.758-.344-1.473-.846-2.036-.385-.472-.92-.918-.96-1.546-.03-.37.198-.752.278-1.092.188-.602-.325-1.025-.636-1.483-1.183-1.516 1.114-4.413-.995-5.281-1.328-.416-3.332-.377-3.558-2.153.2-3.492 5.067-8.016 5.898-11.812.215-1.753.27-3.732.25-5.545C20.414 31.925 33.276 19.212 46 18.829c2.367-.141 4.98-.348 7.208.54z"/><path fill="#0096b7" d="M55.776 21.534c.153.096.199.112.201.214v15.42c-.145 13.171.306 51.811-.17 53.845-1.247.012-3.059.001-4.376.012-2.343.084-4.721.282-7.103.01-.712-.129-.882-.78-.874-1.43-.084-4.104-.092-1.366-.211-5.403-.187-2.044-2.107-3.914-4.132-3.93a100 100 0 0 0-8.161-.174c-1.87.14-3.51-1.156-3.99-3.017-.314-1.143.038-2.067-.018-3.152-.02-.704-.312-1.367-.768-1.89-.35-.436-.836-.851-.875-1.434-.026-.342.182-.698.254-1.013.17-.557-.296-.95-.579-1.375-1.075-1.406 1.015-4.096-.903-4.9-1.208-.386-3.03-.35-3.235-1.998.18-3.241 4.607-7.439 5.362-10.961.195-1.627.245-3.462.228-5.145-.485-12.038 11.21-23.833 22.778-24.19 2.152-.129 4.528-.32 6.553.502z"/><path fill="#67bfd6" d="M53.144 19.378c-.17.103-.219.122-.221.23v16.62c.16 14.195-.336 55.838.186 58.03 1.372.013 3.364.001 4.814.012 2.577.09 5.191.305 7.811.012.783-.14.972-.843.962-1.543.092-4.422.101-1.469.233-5.82.204-2.204 2.316-4.22 4.544-4.237a112 112 0 0 1 8.974-.188c2.058.152 3.86-1.245 4.39-3.252.345-1.23-.042-2.226.018-3.396.023-.758.344-1.473.846-2.036.385-.472.92-.918.96-1.546.03-.37-.198-.752-.278-1.092-.188-.602.325-1.025.636-1.483 1.183-1.516-1.114-4.413.995-5.281 1.328-.416 3.332-.377 3.558-2.153-.2-3.492-5.068-8.016-5.898-11.812-.215-1.753-.27-3.732-.25-5.545.534-12.973-12.329-25.686-25.052-26.069-2.367-.141-4.98-.348-7.208.54z"/><path fill="#0096b7" d="M50.595 21.534c-.153.096-.199.112-.201.214v15.42c.145 13.171-.306 51.811.17 53.845 1.247.012 3.059.001 4.376.012 2.343.084 4.721.282 7.103.01.712-.129.882-.78.874-1.43.084-4.104.092-1.366.211-5.403.187-2.044 2.107-3.914 4.132-3.93 2.717-.174 5.442-.222 8.161-.174 1.87.14 3.51-1.156 3.99-3.017.314-1.143-.038-2.067.018-3.152.02-.704.312-1.367.768-1.89.35-.436.836-.851.875-1.434.026-.342-.182-.698-.254-1.013-.17-.557.296-.95.579-1.375 1.075-1.406-1.015-4.096.903-4.9 1.208-.386 3.03-.35 3.235-1.998-.18-3.241-4.607-7.439-5.362-10.961-.195-1.627-.245-3.462-.228-5.145.485-12.038-11.21-23.833-22.778-24.19-2.152-.129-4.528-.32-6.553.502z"/><path fill="#fcfcfc" d="M55.44 94.395V60.294c0-1.158.799-2.151 1.921-2.427 7.225-1.773 12.543-7.793 12.543-14.949 0-8.55-7.592-15.48-16.957-15.48s-16.957 6.93-16.957 15.48c0 7.156 5.317 13.176 12.54 14.949a2.505 2.505 0 0 1 1.923 2.427v34.101z"/><path fill="#657176" d="M56.724 43.11a.725.725 0 1 1 .002-1.45.725.725 0 0 1-.002 1.45m-3.987-3.263a.724.724 0 1 1 0-1.448.724.724 0 0 1 0 1.448m.726 17.397a.725.725 0 1 1-1.449 0 .725.725 0 0 1 1.449 0m-4.75-11.155a.726.726 0 0 1 0-1.449.725.725 0 0 1 0 1.45m8.011-5.518c-.999 0-1.812.813-1.812 1.812 0 .79.508 1.463 1.215 1.71v2.187l-2.907 3.69v-9.102a1.815 1.815 0 0 0 1.33-1.746c0-.999-.813-1.812-1.813-1.812-.998 0-1.812.813-1.812 1.812 0 .785.503 1.456 1.204 1.706v11.727l-2.825-2.072v-3.407a1.814 1.814 0 0 0-.592-3.525c-.998 0-1.812.813-1.812 1.813 0 .826.555 1.524 1.314 1.742v3.654c0 .174.054.338.194.44l3.721 2.724v1.612a1.815 1.815 0 0 0-1.204 1.707 1.813 1.813 0 1 0 2.295-1.747V51.71c.037-.026 3.899-4.9 3.899-4.9a.53.53 0 0 0 .098-.337v-2.344a1.816 1.816 0 0 0 1.319-1.744c0-.999-.812-1.812-1.812-1.812"/><path fill="#94c11f" d="M53.1 32.187c-.32.451-.724 1.175-.724 1.97 0 1.341.401 1.341.725 1.341s.724 0 .724-1.341c0-.79-.405-1.518-.725-1.97m.001 4.398c-1.202 0-1.813-.818-1.813-2.428 0-1.767 1.37-3.155 1.43-3.212a.543.543 0 0 1 .767 0c.058.057 1.428 1.445 1.428 3.212 0 1.61-.609 2.428-1.812 2.428m10.332 3.097c-1.075.388-1.141.695-.983 1.134.226.624.811.485 1.48.244.735-.266 1.267-.894 1.572-1.346-.66-.193-1.417-.268-2.069-.032m-2.005 1.502c-.466-1.29.35-2.06 1.636-2.524 1.121-.404 2.526-.178 3.469.278.265.128.38.446.257.715-.033.075-.85 1.837-2.49 2.43-1.286.463-2.404.398-2.872-.9m-.452 2.795c-.168.276-.377.62.768 1.316.597.364 1.365.456 2.06.407-.217-.508-.627-1.23-1.305-1.644-.675-.41-1.186-.633-1.523-.079m.203 2.246c-1.376-.839-1.756-1.784-1.132-2.81.62-1.018 1.601-1.148 3.017-.286 1.508.918 1.981 2.81 2 2.89a.544.544 0 0 1-.399.656c-.697.17-2.265.292-3.486-.45m-18.993.563c.692.051 1.468-.046 2.059-.405 1.145-.699.936-1.041.768-1.316-.322-.528-.782-.373-1.523.077-.673.411-1.084 1.135-1.304 1.644m-.863.975a.544.544 0 0 1-.398-.656c.018-.08.492-1.972 2-2.89 1.416-.862 2.398-.731 3.017.285.625 1.026.244 1.973-1.132 2.81-1.048.64-2.565.68-3.487.451m-.436-7.322c.305.451.837 1.125 1.572 1.39.717.259 1.22.475 1.479-.244.14-.39.165-.753-.983-1.168-.656-.236-1.401-.175-2.068.021m1.203 2.415c-1.642-.592-2.458-2.379-2.492-2.453a.557.557 0 0 1 .258-.726c.984-.477 2.374-.682 3.468-.288 1.322.478 2.108 1.266 1.636 2.57-.545 1.514-1.672 1.329-2.87.897m3.195-4.202c-1.1-1.256-1.384-2.977-1.455-3.886.892.188 2.556.696 3.66 1.958 1.159 1.323 1.227 2.028 1.022 2.46-.01-.009-1.863-2.02-1.994-2.162a.486.486 0 0 0-.713.656c.13.141 1.901 2.084 2.019 2.194-.872.532-1.844-.426-2.539-1.22m3.024-2.645c-1.847-2.11-4.865-2.417-4.992-2.43a.546.546 0 0 0-.595.522c-.005.127-.1 3.16 1.746 5.27 1.337 1.526 2.822 2.451 4.36 1.107 1.72-1.506.529-3.272-.52-4.469m10.15 3.51c.113-.114 1.808-2.125 1.932-2.272a.484.484 0 1 0-.739-.626c-.125.148-1.898 2.23-1.908 2.238-.221-.424-.181-1.132.924-2.498 1.055-1.305 2.698-1.877 3.582-2.1-.036.91-.252 2.643-1.302 3.94-.662.82-1.597 1.816-2.489 1.318m-.98.643c1.59 1.283 3.037.301 4.315-1.277 1.76-2.18 1.548-5.207 1.537-5.333a.543.543 0 0 0-.615-.498c-.126.018-3.13.443-4.893 2.622-1 1.238-2.123 3.049-.344 4.486"/></svg>