<?xml version="1.0" encoding="UTF-8"?>
<!-- Created with Inkscape (http://www.inkscape.org/) -->
<svg width="264.57" height="113.39" version="1.1" viewBox="0 0 264.57 113.39" xmlns="http://www.w3.org/2000/svg" xmlns:xlink="http://www.w3.org/1999/xlink">
 <g>
  <path transform="matrix(1.3333 0 0 -1.3333 53.227 19.378)" d="m0 0c0.127-0.077 0.164-0.091 0.166-0.172v-12.465c-0.12-10.647 0.252-41.88-0.14-43.524-1.029-0.01-2.523-1e-3 -3.61-9e-3 -1.933-0.068-3.894-0.229-5.859-9e-3 -0.587 0.105-0.729 0.632-0.721 1.157-0.069 3.317-0.076 1.102-0.175 4.366-0.153 1.652-1.737 3.164-3.408 3.177-2.241 0.141-4.489 0.18-6.731 0.141-1.543-0.114-2.895 0.934-3.293 2.439-0.258 0.923 0.032 1.67-0.013 2.547-0.017 0.569-0.258 1.105-0.634 1.527-0.289 0.354-0.69 0.689-0.721 1.16-0.022 0.277 0.149 0.564 0.209 0.819 0.141 0.451-0.244 0.769-0.477 1.112-0.887 1.137 0.836 3.31-0.746 3.961-0.996 0.312-2.499 0.283-2.669 1.615 0.15 2.619 3.801 6.012 4.424 8.859 0.161 1.315 0.202 2.799 0.188 4.159-0.401 9.73 9.246 19.265 18.789 19.552 1.775 0.106 3.735 0.261 5.406-0.405z" fill="#67bfd6"/>
  <path transform="matrix(1.3333 0 0 -1.3333 55.776 21.534)" d="m0 0c0.115-0.072 0.149-0.084 0.151-0.16v-11.566c-0.109-9.878 0.229-38.859-0.128-40.384-0.935-9e-3 -2.294-1e-3 -3.282-9e-3 -1.757-0.063-3.541-0.212-5.327-8e-3 -0.534 0.097-0.662 0.586-0.656 1.073-0.063 3.078-0.069 1.024-0.158 4.052-0.14 1.533-1.58 2.936-3.099 2.948-2.038 0.13-4.082 0.166-6.121 0.13-1.403-0.105-2.632 0.867-2.993 2.263-0.235 0.857 0.029 1.55-0.013 2.364-0.015 0.528-0.234 1.025-0.576 1.417-0.263 0.328-0.627 0.639-0.656 1.076-0.02 0.257 0.136 0.524 0.19 0.76 0.128 0.418-0.222 0.713-0.434 1.031-0.806 1.055 0.761 3.072-0.677 3.676-0.906 0.289-2.273 0.262-2.427 1.498 0.136 2.431 3.456 5.579 4.022 8.221 0.146 1.22 0.184 2.596 0.171 3.859-0.364 9.028 8.407 17.875 17.084 18.142 1.614 0.097 3.396 0.241 4.915-0.376z" fill="#0096b7"/>
  <path transform="matrix(1.3333 0 0 -1.3333 53.144 19.378)" d="m0 0c-0.127-0.077-0.164-0.091-0.166-0.172v-12.465c0.12-10.647-0.252-41.88 0.14-43.524 1.029-0.01 2.523-1e-3 3.61-9e-3 1.933-0.068 3.894-0.229 5.859-9e-3 0.587 0.105 0.729 0.632 0.721 1.157 0.069 3.317 0.076 1.102 0.175 4.366 0.153 1.652 1.737 3.164 3.408 3.177 2.241 0.141 4.489 0.18 6.731 0.141 1.543-0.114 2.895 0.934 3.293 2.439 0.258 0.923-0.032 1.67 0.013 2.547 0.017 0.569 0.258 1.105 0.634 1.527 0.289 0.354 0.69 0.689 0.721 1.16 0.022 0.277-0.149 0.564-0.209 0.819-0.141 0.451 0.244 0.769 0.477 1.112 0.887 1.137-0.836 3.31 0.746 3.961 0.996 0.312 2.499 0.283 2.669 1.615-0.15 2.619-3.801 6.012-4.424 8.859-0.161 1.315-0.202 2.799-0.188 4.159 0.401 9.73-9.246 19.265-18.789 19.552-1.775 0.106-3.735 0.261-5.406-0.405z" fill="#67bfd6"/>
  <path transform="matrix(1.3333 0 0 -1.3333 50.595 21.534)" d="m0 0c-0.115-0.072-0.149-0.084-0.151-0.16v-11.566c0.109-9.878-0.229-38.859 0.128-40.384 0.935-9e-3 2.294-1e-3 3.282-9e-3 1.757-0.063 3.541-0.212 5.327-8e-3 0.534 0.097 0.662 0.586 0.656 1.073 0.063 3.078 0.069 1.024 0.158 4.052 0.14 1.533 1.58 2.936 3.099 2.948 2.038 0.13 4.082 0.166 6.121 0.13 1.403-0.105 2.632 0.867 2.993 2.263 0.235 0.857-0.029 1.55 0.013 2.364 0.015 0.528 0.234 1.025 0.576 1.417 0.263 0.328 0.627 0.639 0.656 1.076 0.02 0.257-0.136 0.524-0.19 0.76-0.128 0.418 0.222 0.713 0.434 1.031 0.806 1.055-0.761 3.072 0.677 3.676 0.906 0.289 2.273 0.262 2.427 1.498-0.136 2.431-3.456 5.579-4.022 8.221-0.146 1.22-0.184 2.596-0.171 3.859 0.364 9.028-8.407 17.875-17.084 18.142-1.614 0.097-3.396 0.241-4.915-0.376z" fill="#0096b7"/>
  <path transform="matrix(1.3333 0 0 -1.3333 55.44 94.395)" d="m0 0v25.577c0 0.868 0.599 1.613 1.441 1.82 5.419 1.33 9.407 5.845 9.407 11.212 0 6.413-5.694 11.611-12.718 11.611s-12.718-5.198-12.718-11.611c0-5.367 3.988-9.882 9.406-11.212 0.843-0.207 1.442-0.952 1.442-1.82v-25.577z" fill="#fcfcfc"/>
  <path transform="matrix(1.3333 0 0 -1.3333 56.724 43.109)" d="m0 0c-0.3 0-0.543 0.244-0.543 0.544s0.243 0.544 0.543 0.544 0.544-0.244 0.544-0.544-0.244-0.544-0.544-0.544m-2.99 2.447c-0.3 0-0.543 0.243-0.543 0.543s0.243 0.544 0.543 0.544 0.544-0.244 0.544-0.544-0.244-0.543-0.544-0.543m0.544-13.048c0-0.3-0.244-0.544-0.544-0.544s-0.543 0.244-0.543 0.544c0 0.299 0.243 0.544 0.543 0.544s0.544-0.245 0.544-0.544m-3.563 8.366c-0.3 0-0.544 0.244-0.544 0.543 0 0.3 0.244 0.544 0.544 0.544s0.543-0.244 0.543-0.544c0-0.299-0.243-0.543-0.543-0.543m6.009 4.138c-0.749 0-1.359-0.61-1.359-1.359 0-0.592 0.381-1.097 0.911-1.283v-1.64l-2.18-2.767v6.826c0.575 0.159 0.997 0.687 0.997 1.31 0 0.749-0.609 1.359-1.359 1.359-0.749 0-1.359-0.61-1.359-1.359 0-0.589 0.377-1.092 0.903-1.28v-8.795l-2.119 1.554v2.555c0.532 0.184 0.915 0.69 0.915 1.284 0 0.75-0.609 1.36-1.359 1.36-0.749 0-1.359-0.61-1.359-1.36 0-0.619 0.416-1.143 0.985-1.306v-2.741c0-0.13 0.041-0.253 0.146-0.33l2.791-2.043v-1.209c-0.526-0.188-0.903-0.691-0.903-1.28 0-0.75 0.61-1.359 1.359-1.359 0.75 0 1.359 0.609 1.359 1.359 0 0.624-0.422 1.151-0.997 1.31v2.841c0.028 0.02 2.924 3.675 2.924 3.675 0.057 0.072 0.074 0.161 0.074 0.253v1.758c0.57 0.162 0.989 0.687 0.989 1.308 0 0.749-0.609 1.359-1.359 1.359" fill="#657176"/>
  <g fill="#94c11f">
   <path transform="matrix(1.3333 0 0 -1.3333 53.1 32.187)" d="m0 0c-0.24-0.338-0.543-0.881-0.543-1.477 0-1.006 0.301-1.006 0.544-1.006 0.242 0 0.543 0 0.543 1.006 0 0.592-0.304 1.138-0.544 1.477m1e-3 -3.298c-0.902 0-1.36 0.613-1.36 1.821 0 1.325 1.028 2.366 1.072 2.409 0.159 0.159 0.416 0.159 0.576 0 0.043-0.043 1.071-1.084 1.071-2.409 0-1.208-0.457-1.821-1.359-1.821"/>
   <path transform="matrix(1.3333 0 0 -1.3333 63.433 39.682)" d="m0 0c-0.806-0.291-0.856-0.521-0.737-0.85 0.169-0.468 0.608-0.364 1.11-0.183 0.551 0.199 0.95 0.67 1.179 1.009-0.495 0.145-1.063 0.201-1.552 0.024m-1.504-1.126c-0.349 0.967 0.263 1.545 1.227 1.893 0.841 0.303 1.895 0.133 2.602-0.209 0.199-0.096 0.285-0.334 0.193-0.536-0.025-0.056-0.638-1.378-1.868-1.822-0.964-0.348-1.803-0.299-2.154 0.674"/>
   <path transform="matrix(1.3333 0 0 -1.3333 60.976 43.978)" d="m0 0c-0.126-0.207-0.283-0.464 0.576-0.987 0.448-0.273 1.024-0.342 1.545-0.305-0.163 0.381-0.47 0.923-0.979 1.233-0.506 0.308-0.889 0.475-1.142 0.059m0.152-1.684c-1.032 0.629-1.317 1.338-0.849 2.108 0.465 0.763 1.201 0.86 2.263 0.214 1.131-0.689 1.486-2.108 1.5-2.168 0.053-0.218-0.081-0.438-0.299-0.492-0.523-0.127-1.699-0.219-2.615 0.338"/>
   <path transform="matrix(1.3333 0 0 -1.3333 42.186 46.787)" d="m0 0c0.519-0.038 1.101 0.035 1.544 0.304 0.859 0.524 0.702 0.781 0.576 0.987-0.241 0.396-0.586 0.28-1.142-0.058-0.505-0.308-0.813-0.851-0.978-1.233m-0.647-0.731c-0.218 0.054-0.352 0.274-0.299 0.492 0.014 0.06 0.369 1.479 1.5 2.168 1.062 0.646 1.799 0.548 2.263-0.214 0.469-0.77 0.183-1.48-0.849-2.108-0.786-0.479-1.924-0.51-2.615-0.338"/>
   <path transform="matrix(1.3333 0 0 -1.3333 40.887 40.439)" d="m0 0c0.229-0.339 0.628-0.844 1.179-1.043 0.538-0.194 0.915-0.356 1.109 0.183 0.106 0.292 0.124 0.565-0.737 0.876-0.492 0.177-1.051 0.131-1.551-0.016m0.902-1.811c-1.231 0.444-1.843 1.784-1.869 1.84-0.091 0.201-6e-3 0.448 0.194 0.544 0.738 0.358 1.78 0.512 2.601 0.216 0.991-0.358 1.581-0.949 1.227-1.927-0.409-1.136-1.254-0.997-2.153-0.673"/>
   <path transform="matrix(1.3333 0 0 -1.3333 45.285 38.652)" d="m0 0c-0.825 0.942-1.038 2.233-1.091 2.915 0.669-0.141 1.917-0.522 2.745-1.469 0.869-0.992 0.92-1.521 0.766-1.845-7e-3 7e-3 -1.397 1.515-1.495 1.622-0.136 0.147-0.366 0.157-0.513 0.022-0.148-0.137-0.159-0.366-0.022-0.514 0.097-0.106 1.426-1.563 1.514-1.646-0.654-0.399-1.383 0.32-1.904 0.915m2.268 1.984c-1.385 1.582-3.649 1.813-3.744 1.822-0.111 0.011-0.223-0.026-0.307-0.099-0.085-0.074-0.135-0.179-0.139-0.292-4e-3 -0.095-0.076-2.37 1.309-3.952 1.003-1.145 2.117-1.839 3.27-0.831 1.291 1.13 0.397 2.454-0.389 3.352"/>
   <path transform="matrix(1.3333 0 0 -1.3333 58.458 39.517)" d="m0 0c0.085 0.086 1.356 1.594 1.449 1.704 0.13 0.153 0.111 0.382-0.042 0.512-0.152 0.13-0.382 0.111-0.512-0.042-0.094-0.111-1.424-1.672-1.431-1.679-0.166 0.318-0.136 0.849 0.693 1.874 0.791 0.979 2.023 1.408 2.686 1.575-0.027-0.683-0.189-1.982-0.976-2.955-0.497-0.615-1.198-1.362-1.867-0.989m-0.735-0.482c1.192-0.962 2.278-0.226 3.236 0.958 1.321 1.635 1.161 3.905 1.153 4-9e-3 0.113-0.063 0.216-0.15 0.286s-0.2 0.102-0.311 0.087c-0.095-0.013-2.348-0.332-3.67-1.966-0.75-0.929-1.592-2.287-0.258-3.365"/>
  </g>
  <path transform="matrix(1.3333 0 0 -1.3333 100.82 53.463)" d="m0 0-1.221-3.62h2.982l-1.199 3.62-0.253 0.858h-0.034zm2.08-4.599h-3.631l-0.66-1.969h-1.21l3.036 8.251h1.342l3.048-8.251h-1.265z" fill="#67bfd6"/>
  <path transform="matrix(1.3333 0 0 -1.3333 -11.339 124.72)" d="m89.518 55.129h1.155v-8.251h-1.155z" fill="#67bfd6"/>
  <path transform="matrix(1.3333 0 0 -1.3333 -11.339 124.72)" d="m95.557 50.233h-2.915v0.781h2.915z" fill="#657176"/>
  <g fill="#0096b7">
   <path transform="matrix(1.3333 0 0 -1.3333 121.57 53.463)" d="m0 0-1.221-3.62h2.982l-1.199 3.62-0.253 0.858h-0.034zm2.08-4.599h-3.631l-0.66-1.969h-1.21l3.036 8.251h1.343l3.047-8.251h-1.265z"/>
   <path transform="matrix(1.3333 0 0 -1.3333 131.16 62.425)" d="m0 0c-0.946 0-1.761 0.242-2.42 0.627l0.176 1.023c0.671-0.407 1.386-0.627 2.233-0.627 1.166 0 1.739 0.528 1.739 1.408 0 1.87-4.082 1.056-4.082 3.796 0 1.298 0.835 2.31 2.717 2.31 0.803 0 1.584-0.154 2.178-0.44l-0.153-0.979c-0.65 0.253-1.277 0.396-1.97 0.396-1.243 0-1.684-0.572-1.684-1.222 0-1.792 4.082-0.957 4.082-3.784 0-1.551-1.001-2.508-2.816-2.508"/>
   <path transform="matrix(1.3333 0 0 -1.3333 139.3 62.425)" d="m0 0c-0.946 0-1.761 0.242-2.42 0.627l0.176 1.023c0.671-0.407 1.386-0.627 2.233-0.627 1.166 0 1.739 0.528 1.739 1.408 0 1.87-4.082 1.056-4.082 3.796 0 1.298 0.835 2.31 2.717 2.31 0.803 0 1.584-0.154 2.178-0.44l-0.153-0.979c-0.65 0.253-1.277 0.396-1.97 0.396-1.243 0-1.684-0.572-1.684-1.222 0-1.792 4.082-0.957 4.082-3.784 0-1.551-1.001-2.508-2.816-2.508"/>
   <path transform="matrix(1.3333 0 0 -1.3333 -11.339 124.72)" d="m117.45 55.129h1.155v-8.251h-1.155z"/>
   <path transform="matrix(1.3333 0 0 -1.3333 152.37 62.425)" d="m0 0c-0.946 0-1.761 0.242-2.42 0.627l0.176 1.023c0.671-0.407 1.386-0.627 2.233-0.627 1.166 0 1.739 0.528 1.739 1.408 0 1.87-4.082 1.056-4.082 3.796 0 1.298 0.835 2.31 2.717 2.31 0.803 0 1.584-0.154 2.178-0.44l-0.153-0.979c-0.65 0.253-1.277 0.396-1.97 0.396-1.243 0-1.684-0.572-1.684-1.222 0-1.792 4.082-0.957 4.082-3.784 0-1.551-1.001-2.508-2.816-2.508"/>
   <path transform="matrix(1.3333 0 0 -1.3333 161.57 52.627)" d="m0 0v-7.195h-1.145v7.195h-2.453l0.034 1.056h5.996l0.021-1.056z"/>
   <path transform="matrix(1.3333 0 0 -1.3333 169.14 53.463)" d="m0 0-1.221-3.62h2.982l-1.199 3.62-0.253 0.858h-0.034zm2.08-4.599h-3.631l-0.66-1.969h-1.21l3.036 8.251h1.343l3.047-8.251h-1.265z"/>
   <path transform="matrix(1.3333 0 0 -1.3333 183.36 62.22)" d="m0 0-3.895 5.677-0.484 0.748-0.021-0.011 0.01-0.891v-5.523h-1.011v8.251h1.022l4.181-6.238 0.022 0.011-0.022 0.88v5.347h1.002v-8.251z"/>
   <path transform="matrix(1.3333 0 0 -1.3333 190.89 52.627)" d="m0 0v-7.195h-1.145v7.195h-2.453l0.034 1.056h5.996l0.021-1.056z"/>
   <path transform="matrix(1.3333 0 0 -1.3333 198.34 62.425)" d="m0 0c-0.946 0-1.761 0.242-2.42 0.627l0.176 1.023c0.671-0.407 1.386-0.627 2.233-0.627 1.166 0 1.739 0.528 1.739 1.408 0 1.87-4.082 1.056-4.082 3.796 0 1.298 0.835 2.31 2.717 2.31 0.803 0 1.584-0.154 2.178-0.44l-0.153-0.979c-0.65 0.253-1.277 0.396-1.97 0.396-1.243 0-1.684-0.572-1.684-1.222 0-1.792 4.082-0.957 4.082-3.784 0-1.551-1.001-2.508-2.816-2.508"/>
   <path transform="matrix(1.3333 0 0 -1.3333 213.18 53.683)" d="m0 0 0.032 0.891-0.021 0.011-0.462-0.77-1.849-3.036-0.472-0.716 0.01-0.032h2.706zm0.924-4.609v-1.794h-1.012v1.794h-3.818l-0.088 0.714 3.587 5.743h1.331v-5.5h1.034l-0.033-0.957z"/>
   <path transform="matrix(1.3333 0 0 -1.3333 221.55 52.524)" d="m0 0h-1.617v-3.234h1.617c1.166 0 1.728 0.362 1.728 1.628 0 1.199-0.529 1.606-1.728 1.606m0-4.181h-1.617v-3.091h-1.122v8.251h2.739c2.024 0 2.882-0.792 2.882-2.585 0-1.694-0.836-2.575-2.882-2.575"/>
   <path transform="matrix(1.3333 0 0 -1.3333 -11.339 124.72)" d="m179.23 55.129h1.155v-8.251h-1.155z"/>
   <path transform="matrix(1.3333 0 0 -1.3333 235.96 52.627)" d="m0 0h-1.694v-6.15h1.705c1.617 0 2.376 0.616 2.376 3.114 0 2.376-0.693 3.036-2.387 3.036m0.033-7.195h-2.849v8.251h2.827c2.509 0 3.553-1.199 3.553-4.092 0-3.004-1.155-4.159-3.531-4.159"/>
   <path transform="matrix(1.3333 0 0 -1.3333 245.53 62.425)" d="m0 0c-0.946 0-1.761 0.242-2.42 0.627l0.176 1.023c0.671-0.407 1.386-0.627 2.233-0.627 1.166 0 1.739 0.528 1.739 1.408 0 1.87-4.082 1.056-4.082 3.796 0 1.298 0.835 2.31 2.717 2.31 0.803 0 1.584-0.154 2.178-0.44l-0.153-0.979c-0.65 0.253-1.277 0.396-1.97 0.396-1.243 0-1.684-0.572-1.684-1.222 0-1.792 4.082-0.957 4.082-3.784 0-1.551-1.001-2.508-2.816-2.508"/>
  </g>
  <g fill="#657176">
   <path transform="matrix(1.3333 0 0 -1.3333 98.336 69.713)" d="m0 0-0.659-1.973h1.608l-0.646 1.973-0.137 0.468h-0.018zm1.121-2.507h-1.958l-0.356-1.073h-0.654l1.639 4.497h0.725l1.643-4.497h-0.682z"/>
   <path transform="matrix(1.3333 0 0 -1.3333 -11.339 124.72)" d="m85.174 42.176h0.623v-4.498h-0.623z"/>
   <path transform="matrix(1.3333 0 0 -1.3333 -11.339 124.72)" d="m88.434 39.507h-1.573v0.426h1.573z"/>
   <path transform="matrix(1.3333 0 0 -1.3333 109.54 69.713)" d="m0 0-0.659-1.973h1.608l-0.646 1.973-0.137 0.468h-0.018zm1.121-2.507h-1.958l-0.356-1.073h-0.654l1.639 4.497h0.724l1.644-4.497h-0.682z"/>
   <path transform="matrix(1.3333 0 0 -1.3333 114.49 74.582)" d="m0 0c-0.422 0-0.813 0.102-1.087 0.3l0.071 0.492c0.268-0.205 0.671-0.313 1.01-0.313 0.516 0 0.73 0.252 0.73 0.588 0 0.81-1.811 0.432-1.811 1.637 0 0.606 0.422 1.002 1.235 1.002 0.344 0 0.67-0.072 0.956-0.204l-0.047-0.48c-0.297 0.126-0.636 0.192-0.921 0.192-0.421 0-0.689-0.186-0.689-0.48 0-0.761 1.799-0.365 1.799-1.613 0-0.671-0.374-1.121-1.246-1.121"/>
   <path transform="matrix(1.3333 0 0 -1.3333 118.33 74.582)" d="m0 0c-0.422 0-0.813 0.102-1.087 0.3l0.071 0.492c0.268-0.205 0.671-0.313 1.01-0.313 0.516 0 0.73 0.252 0.73 0.588 0 0.81-1.811 0.432-1.811 1.637 0 0.606 0.422 1.002 1.235 1.002 0.344 0 0.67-0.072 0.956-0.204l-0.047-0.48c-0.297 0.126-0.636 0.192-0.921 0.192-0.421 0-0.689-0.186-0.689-0.48 0-0.761 1.799-0.365 1.799-1.613 0-0.671-0.374-1.121-1.246-1.121"/>
   <path transform="matrix(1.3333 0 0 -1.3333 121.2 74.487)" d="m0 0v3.556l0.564 0.03v-3.586zm0.285 4.174c-0.243 0-0.362 0.077-0.362 0.305 0 0.198 0.119 0.306 0.362 0.306s0.362-0.108 0.362-0.306c0-0.209-0.119-0.305-0.362-0.305"/>
   <path transform="matrix(1.3333 0 0 -1.3333 124.7 74.582)" d="m0 0c-0.422 0-0.813 0.102-1.087 0.3l0.071 0.492c0.268-0.205 0.671-0.313 1.01-0.313 0.516 0 0.73 0.252 0.73 0.588 0 0.81-1.811 0.432-1.811 1.637 0 0.606 0.422 1.002 1.235 1.002 0.344 0 0.67-0.072 0.956-0.204l-0.047-0.48c-0.297 0.126-0.636 0.192-0.921 0.192-0.421 0-0.689-0.186-0.689-0.48 0-0.761 1.799-0.365 1.799-1.613 0-0.671-0.374-1.121-1.246-1.121"/>
   <path transform="matrix(1.3333 0 0 -1.3333 128.28 70.313)" d="m0 0v-2.195c0-0.372 0.196-0.522 0.517-0.522 0.101 0 0.225 0.018 0.296 0.049l0.037-0.433c-0.108-0.053-0.303-0.089-0.494-0.089-0.605 0-0.919 0.341-0.919 0.977v2.213h-0.493v0.444h0.51l0.108 0.887 0.438 0.048v-0.935h0.873v-0.444z"/>
   <path transform="matrix(1.3333 0 0 -1.3333 133.15 71.688)" d="m0 0c-0.013 0.756-0.362 1.043-0.873 1.043-0.6 0-0.866-0.335-0.902-1.043zm-2.339-0.216c0 1.122 0.486 1.751 1.46 1.751 0.843 0 1.395-0.503 1.395-1.649 0-0.09-6e-3 -0.198-0.012-0.276h-2.268c0.031-0.941 0.374-1.265 1.134-1.265 0.357 0 0.659 0.078 0.962 0.228l0.065-0.48c-0.296-0.162-0.665-0.263-1.092-0.263-1.163 0-1.644 0.617-1.644 1.954"/>
   <path transform="matrix(1.3333 0 0 -1.3333 137.76 70.88)" d="m0 0c-0.148 0.246-0.463 0.408-0.843 0.408-0.688 0-0.938-0.372-0.938-1.344 0-1.001 0.225-1.367 0.932-1.367 0.493 0 0.748 0.246 0.849 0.438zm0.131-2.705-0.071 0.372-0.019 6e-3c-0.219-0.294-0.569-0.449-1.044-0.449-0.956 0-1.359 0.587-1.359 1.864 0 1.212 0.421 1.848 1.365 1.848 0.392 0 0.748-0.139 0.997-0.402l0.012 6e-3 -0.012 0.48v1.007l0.563 0.036v-4.768z"/>
   <path transform="matrix(1.3333 0 0 -1.3333 144.08 74.599)" d="m0 0c-0.511 0-0.949 0.132-1.306 0.342l0.095 0.557c0.362-0.221 0.748-0.341 1.205-0.341 0.629 0 0.938 0.288 0.938 0.767 0 1.02-2.203 0.576-2.203 2.069 0 0.708 0.452 1.259 1.467 1.259 0.433 0 0.855-0.084 1.175-0.239l-0.083-0.534c-0.35 0.138-0.688 0.216-1.062 0.216-0.671 0-0.909-0.312-0.909-0.666 0-0.977 2.203-0.522 2.203-2.063 0-0.845-0.541-1.367-1.52-1.367"/>
   <path transform="matrix(1.3333 0 0 -1.3333 148.88 73.951)" d="m0 0c0.683 0 0.944 0.354 0.944 1.373 0 1.025-0.261 1.374-0.944 1.374-0.694 0-0.962-0.349-0.962-1.374s0.268-1.373 0.962-1.373m0-0.48c-1.068 0-1.543 0.528-1.543 1.853s0.481 1.859 1.543 1.859c1.068 0 1.52-0.534 1.52-1.859s-0.458-1.853-1.52-1.853"/>
   <path transform="matrix(1.3333 0 0 -1.3333 152.12 74.487)" d="m0 0v4.731l0.563 0.037v-4.768z"/>
   <path transform="matrix(1.3333 0 0 -1.3333 157.93 72.92)" d="m0 0c0-0.792-0.445-1.241-1.377-1.241-0.926 0-1.371 0.455-1.371 1.241v2.399h0.558v-2.387c0-0.48 0.273-0.732 0.819-0.732 0.534 0 0.813 0.246 0.813 0.732v2.387h0.558z"/>
   <path transform="matrix(1.3333 0 0 -1.3333 160.11 70.313)" d="m0 0v-2.195c0-0.372 0.196-0.522 0.517-0.522 0.101 0 0.225 0.018 0.296 0.049l0.037-0.433c-0.108-0.053-0.303-0.089-0.494-0.089-0.605 0-0.919 0.341-0.919 0.977v2.213h-0.493v0.444h0.51l0.108 0.887 0.438 0.048v-0.935h0.873v-0.444z"/>
   <path transform="matrix(1.3333 0 0 -1.3333 162.39 74.487)" d="m0 0v3.556l0.564 0.03v-3.586zm0.285 4.174c-0.243 0-0.362 0.077-0.362 0.305 0 0.198 0.119 0.306 0.362 0.306s0.362-0.108 0.362-0.306c0-0.209-0.119-0.305-0.362-0.305"/>
   <path transform="matrix(1.3333 0 0 -1.3333 166.46 73.951)" d="m0 0c0.683 0 0.944 0.354 0.944 1.373 0 1.025-0.261 1.374-0.944 1.374-0.694 0-0.962-0.349-0.962-1.374s0.268-1.373 0.962-1.373m0-0.48c-1.068 0-1.543 0.528-1.543 1.853s0.481 1.859 1.543 1.859c1.068 0 1.52-0.534 1.52-1.859s-0.458-1.853-1.52-1.853"/>
   <path transform="matrix(1.3333 0 0 -1.3333 172.46 74.487)" d="m0 0v2.363c0 0.528-0.278 0.749-0.801 0.749-0.303 0-0.659-0.144-0.825-0.402v-2.71h-0.564v3.562l0.404 0.03 0.095-0.378h0.017c0.243 0.27 0.63 0.426 1.028 0.426 0.748 0 1.205-0.426 1.205-1.277v-2.363z"/>
   <path transform="matrix(1.3333 0 0 -1.3333 175.68 74.582)" d="m0 0c-0.422 0-0.813 0.102-1.087 0.3l0.071 0.492c0.268-0.205 0.671-0.313 1.01-0.313 0.516 0 0.73 0.252 0.73 0.588 0 0.81-1.811 0.432-1.811 1.637 0 0.606 0.422 1.002 1.235 1.002 0.344 0 0.67-0.072 0.956-0.204l-0.047-0.48c-0.297 0.126-0.636 0.192-0.921 0.192-0.421 0-0.689-0.186-0.689-0.48 0-0.761 1.799-0.365 1.799-1.613 0-0.671-0.374-1.121-1.246-1.121"/>
   <path transform="matrix(1.3333 0 0 -1.3333 181.41 74.487)" d="m0 0v3.136h-0.521v0.438h0.521v0.162c0 0.599 0.345 1.037 1.158 1.037 0.184 0 0.392-0.03 0.523-0.071l-0.036-0.39c-0.113 0.03-0.249 0.047-0.386 0.047-0.492 0-0.695-0.234-0.695-0.629v-0.156h0.909v-0.438h-0.909v-3.136z"/>
   <path transform="matrix(1.3333 0 0 -1.3333 185.94 73.951)" d="m0 0c0.683 0 0.944 0.354 0.944 1.373 0 1.025-0.261 1.374-0.944 1.374-0.694 0-0.962-0.349-0.962-1.374s0.268-1.373 0.962-1.373m0-0.48c-1.068 0-1.543 0.528-1.543 1.853s0.481 1.859 1.543 1.859c1.068 0 1.52-0.534 1.52-1.859s-0.458-1.853-1.52-1.853"/>
   <path transform="matrix(1.3333 0 0 -1.3333 189.02 74.487)" d="m0 0v3.55l0.451 0.03 0.048-0.767h0.012c0.219 0.515 0.605 0.815 1.086 0.815 0.131 0 0.256-0.018 0.35-0.048l-0.035-0.576c-0.107 0.037-0.225 0.048-0.35 0.048-0.552 0-0.998-0.473-0.998-1.241v-1.811z"/>
   <path transform="matrix(1.3333 0 0 -1.3333 199.22 73.743)" d="m0 0-0.018-0.558h-2.836v4.498h2.736l0.017-0.564h-2.148v-1.337h1.84v-0.516h-1.84v-1.523z"/>
   <path transform="matrix(1.3333 0 0 -1.3333 203.15 74.487)" d="m0 0v2.363c0 0.528-0.278 0.749-0.801 0.749-0.303 0-0.659-0.144-0.825-0.402v-2.71h-0.564v3.562l0.404 0.03 0.095-0.378h0.017c0.243 0.27 0.63 0.426 1.028 0.426 0.748 0 1.205-0.426 1.205-1.277v-2.363z"/>
   <path transform="matrix(1.3333 0 0 -1.3333 208.11 74.487)" d="m0 0v2.369c0 0.48-0.256 0.743-0.802 0.743-0.368 0-0.688-0.179-0.831-0.407v-2.705h-0.557v4.731l0.557 0.037v-1.038l-6e-3 -0.48 0.012-6e-3c0.256 0.27 0.617 0.396 0.991 0.396 0.773 0 1.194-0.456 1.194-1.271v-2.369z"/>
   <path transform="matrix(1.3333 0 0 -1.3333 212.65 72.311)" d="m0 0c-0.09 0.054-0.351 0.132-0.707 0.132-0.587 0-0.843-0.24-0.843-0.666 0-0.509 0.303-0.684 0.713-0.684 0.439 0 0.837 0.3 0.837 0.6zm0.077-1.193-0.018 6e-3c-0.207-0.307-0.593-0.499-1.05-0.499-0.648 0-1.087 0.342-1.087 1.146 0 0.672 0.428 1.085 1.27 1.085 0.303 0 0.594-0.06 0.814-0.137v0.353c0 0.564-0.25 0.762-0.825 0.762-0.374 0-0.677-0.066-0.992-0.216l-0.053 0.474c0.339 0.156 0.718 0.234 1.139 0.234 0.932 0 1.283-0.396 1.283-1.338v-2.308h-0.428z"/>
   <path transform="matrix(1.3333 0 0 -1.3333 217.56 74.487)" d="m0 0v2.363c0 0.528-0.278 0.749-0.801 0.749-0.303 0-0.659-0.144-0.825-0.402v-2.71h-0.564v3.562l0.404 0.03 0.095-0.378h0.017c0.243 0.27 0.63 0.426 1.028 0.426 0.748 0 1.205-0.426 1.205-1.277v-2.363z"/>
   <path transform="matrix(1.3333 0 0 -1.3333 222.42 70.561)" d="m0 0c-0.208 0.096-0.463 0.162-0.719 0.162-0.765 0-1.051-0.372-1.051-1.295 0-1.008 0.363-1.38 1.04-1.38 0.279 0 0.54 0.073 0.753 0.204l0.042-0.467c-0.208-0.144-0.54-0.246-0.914-0.246-0.991 0-1.502 0.575-1.502 1.889 0 1.205 0.463 1.817 1.52 1.817 0.314 0 0.635-0.072 0.866-0.174z"/>
   <path transform="matrix(1.3333 0 0 -1.3333 223.69 74.487)" d="m0 0v3.556l0.564 0.03v-3.586zm0.285 4.174c-0.243 0-0.362 0.077-0.362 0.305 0 0.198 0.119 0.306 0.362 0.306s0.362-0.108 0.362-0.306c0-0.209-0.119-0.305-0.362-0.305"/>
   <path transform="matrix(1.3333 0 0 -1.3333 228.89 74.487)" d="m0 0v2.363c0 0.528-0.278 0.749-0.801 0.749-0.303 0-0.659-0.144-0.825-0.402v-2.71h-0.564v3.562l0.404 0.03 0.095-0.378h0.017c0.243 0.27 0.63 0.426 1.028 0.426 0.748 0 1.205-0.426 1.205-1.277v-2.363z"/>
   <path transform="matrix(1.3333 0 0 -1.3333 231.53 71.08)" d="m0 0c0-0.504 0.291-0.624 0.688-0.624 0.546 0 0.712 0.204 0.712 0.624 0 0.468-0.207 0.629-0.7 0.629-0.516 0-0.7-0.203-0.7-0.629m0.148-1.991c-0.196-0.138-0.291-0.33-0.291-0.498 0-0.36 0.249-0.563 0.861-0.563 0.802 0 1.004 0.221 1.004 0.545 0 0.252-0.131 0.384-0.713 0.438zm0.054 1.001c-0.173-0.048-0.267-0.143-0.267-0.263 0-0.121 0.094-0.222 0.308-0.24l0.861-0.072c0.855-0.072 1.133-0.36 1.133-0.864 0-0.654-0.403-1.073-1.508-1.073-0.955 0-1.358 0.384-1.358 0.941 0 0.252 0.118 0.492 0.344 0.672-0.166 0.096-0.297 0.264-0.297 0.498 0 0.227 0.154 0.437 0.439 0.545l6e-3 0.013c-0.255 0.155-0.421 0.419-0.421 0.845 0 0.659 0.35 1.067 1.252 1.067 0.309 0 0.629-0.054 0.873-0.222l0.581 0.234 0.125-0.288-0.427-0.3c0.059-0.137 0.094-0.293 0.094-0.491 0-0.678-0.326-1.055-1.246-1.055-0.166 0-0.332 0.011-0.492 0.053"/>
   <path transform="matrix(1.3333 0 0 -1.3333 239.18 70.313)" d="m0 0v-2.195c0-0.372 0.196-0.522 0.517-0.522 0.101 0 0.225 0.018 0.296 0.049l0.037-0.433c-0.108-0.053-0.303-0.089-0.494-0.089-0.605 0-0.919 0.341-0.919 0.977v2.213h-0.493v0.444h0.51l0.108 0.887 0.438 0.048v-0.935h0.873v-0.444z"/>
   <path transform="matrix(1.3333 0 0 -1.3333 244.24 74.487)" d="m0 0v2.369c0 0.48-0.256 0.743-0.802 0.743-0.368 0-0.688-0.179-0.831-0.407v-2.705h-0.557v4.731l0.557 0.037v-1.038l-6e-3 -0.48 0.012-6e-3c0.256 0.27 0.618 0.396 0.991 0.396 0.773 0 1.194-0.456 1.194-1.271v-2.369z"/>
   <path transform="matrix(1.3333 0 0 -1.3333 249.08 71.688)" d="m0 0c-0.013 0.756-0.362 1.043-0.873 1.043-0.6 0-0.866-0.335-0.902-1.043zm-2.339-0.216c0 1.122 0.486 1.751 1.46 1.751 0.843 0 1.395-0.503 1.395-1.649 0-0.09-6e-3 -0.198-0.012-0.276h-2.268c0.031-0.941 0.374-1.265 1.134-1.265 0.357 0 0.659 0.078 0.962 0.228l0.065-0.48c-0.296-0.162-0.665-0.263-1.092-0.263-1.163 0-1.644 0.617-1.644 1.954"/>
   <path transform="matrix(1.3333 0 0 -1.3333 -11.339 124.72)" d="m80.97 34.975h0.643v-4.498h-0.643z"/>
   <path transform="matrix(1.3333 0 0 -1.3333 102.14 84.087)" d="m0 0v2.363c0 0.528-0.287 0.749-0.826 0.749-0.312 0-0.679-0.144-0.851-0.402v-2.71h-0.581v3.562l0.416 0.03 0.098-0.378h0.018c0.251 0.27 0.649 0.426 1.059 0.426 0.771 0 1.242-0.426 1.242-1.277v-2.363z"/>
   <path transform="matrix(1.3333 0 0 -1.3333 107.24 80.481)" d="m0 0c-0.153 0.246-0.478 0.408-0.869 0.408-0.71 0-0.967-0.372-0.967-1.344 0-1.001 0.232-1.367 0.961-1.367 0.508 0 0.771 0.246 0.875 0.438zm0.135-2.705-0.074 0.372-0.018 6e-3c-0.227-0.294-0.588-0.449-1.077-0.449-0.986 0-1.402 0.587-1.402 1.864 0 1.212 0.435 1.848 1.408 1.848 0.404 0 0.771-0.139 1.028-0.402l0.012 6e-3 -0.012 0.48v1.007l0.581 0.036v-4.768z"/>
   <path transform="matrix(1.3333 0 0 -1.3333 112.4 81.289)" d="m0 0c-0.013 0.756-0.374 1.043-0.899 1.043-0.619 0-0.894-0.335-0.931-1.043zm-2.411-0.216c0 1.122 0.502 1.751 1.505 1.751 0.869 0 1.438-0.503 1.438-1.649 0-0.09-6e-3 -0.198-0.012-0.276h-2.337c0.03-0.941 0.385-1.265 1.169-1.265 0.366 0 0.678 0.078 0.991 0.228l0.066-0.48c-0.305-0.162-0.684-0.263-1.125-0.263-1.199 0-1.695 0.617-1.695 1.954"/>
   <path transform="matrix(1.3333 0 0 -1.3333 116.24 79.937)" d="m0 0c-0.392 0-0.697-0.15-0.887-0.42v-1.835c0.141-0.234 0.428-0.437 0.857-0.437 0.569 0 0.967 0.269 0.967 1.373 0 1.037-0.325 1.319-0.937 1.319m0.11-3.178c-0.385 0-0.74 0.095-0.991 0.389l-0.012-5e-3 6e-3 -0.486v-0.72h-0.593v4.444l0.416 0.03 0.122-0.372c0.263 0.264 0.642 0.419 1.083 0.419 0.893 0 1.395-0.455 1.395-1.84 0-1.32-0.551-1.859-1.426-1.859"/>
   <path transform="matrix(1.3333 0 0 -1.3333 122.38 81.289)" d="m0 0c-0.013 0.756-0.374 1.043-0.899 1.043-0.619 0-0.894-0.335-0.931-1.043zm-2.411-0.216c0 1.122 0.502 1.751 1.505 1.751 0.869 0 1.438-0.503 1.438-1.649 0-0.09-6e-3 -0.198-0.012-0.276h-2.337c0.03-0.941 0.385-1.265 1.169-1.265 0.366 0 0.678 0.078 0.991 0.228l0.066-0.48c-0.305-0.162-0.684-0.263-1.125-0.263-1.199 0-1.695 0.617-1.695 1.954"/>
   <path transform="matrix(1.3333 0 0 -1.3333 127.25 84.087)" d="m0 0v2.363c0 0.528-0.287 0.749-0.826 0.749-0.312 0-0.679-0.144-0.851-0.402v-2.71h-0.581v3.562l0.416 0.03 0.098-0.378h0.018c0.251 0.27 0.649 0.426 1.059 0.426 0.771 0 1.242-0.426 1.242-1.277v-2.363z"/>
   <path transform="matrix(1.3333 0 0 -1.3333 132.35 80.481)" d="m0 0c-0.153 0.246-0.478 0.408-0.869 0.408-0.71 0-0.967-0.372-0.967-1.344 0-1.001 0.232-1.367 0.961-1.367 0.508 0 0.771 0.246 0.875 0.438zm0.135-2.705-0.074 0.372-0.018 6e-3c-0.227-0.294-0.588-0.449-1.077-0.449-0.986 0-1.402 0.587-1.402 1.864 0 1.212 0.435 1.848 1.408 1.848 0.404 0 0.771-0.139 1.028-0.402l0.012 6e-3 -0.012 0.48v1.007l0.581 0.036v-4.768z"/>
   <path transform="matrix(1.3333 0 0 -1.3333 137.52 81.289)" d="m0 0c-0.013 0.756-0.374 1.043-0.899 1.043-0.619 0-0.894-0.335-0.931-1.043zm-2.411-0.216c0 1.122 0.502 1.751 1.505 1.751 0.869 0 1.438-0.503 1.438-1.649 0-0.09-6e-3 -0.198-0.012-0.276h-2.337c0.03-0.941 0.385-1.265 1.169-1.265 0.366 0 0.678 0.078 0.991 0.228l0.066-0.48c-0.305-0.162-0.684-0.263-1.125-0.263-1.199 0-1.695 0.617-1.695 1.954"/>
   <path transform="matrix(1.3333 0 0 -1.3333 142.39 84.087)" d="m0 0v2.363c0 0.528-0.287 0.749-0.826 0.749-0.312 0-0.679-0.144-0.851-0.402v-2.71h-0.581v3.562l0.416 0.03 0.098-0.378h0.018c0.251 0.27 0.649 0.426 1.059 0.426 0.771 0 1.242-0.426 1.242-1.277v-2.363z"/>
   <path transform="matrix(1.3333 0 0 -1.3333 145.56 79.913)" d="m0 0v-2.195c0-0.372 0.202-0.522 0.532-0.522 0.105 0 0.233 0.018 0.306 0.049l0.037-0.433c-0.11-0.053-0.313-0.089-0.508-0.089-0.624 0-0.948 0.341-0.948 0.977v2.213h-0.508v0.444h0.527l0.109 0.887 0.453 0.048v-0.935h0.899v-0.444z"/>
   <path transform="matrix(1.3333 0 0 -1.3333 156.33 83.319)" d="m0 0-0.019-0.576h-2.747v4.498h0.63v-3.922z"/>
   <path transform="matrix(1.3333 0 0 -1.3333 157.49 84.087)" d="m0 0v3.556l0.581 0.03v-3.586zm0.293 4.174c-0.25 0-0.373 0.077-0.373 0.305 0 0.198 0.123 0.306 0.373 0.306 0.251 0 0.374-0.108 0.374-0.306 0-0.209-0.123-0.305-0.374-0.305"/>
   <path transform="matrix(1.3333 0 0 -1.3333 164.18 79.321)" d="m0 0-1.414-3.574h-0.673l-1.413 3.574h0.643l0.942-2.615 0.158-0.455h0.019l0.153 0.455 0.942 2.615z"/>
   <path transform="matrix(1.3333 0 0 -1.3333 165.41 84.087)" d="m0 0v3.556l0.581 0.03v-3.586zm0.293 4.174c-0.25 0-0.373 0.077-0.373 0.305 0 0.198 0.123 0.306 0.373 0.306 0.251 0 0.374-0.108 0.374-0.306 0-0.209-0.123-0.305-0.374-0.305"/>
   <path transform="matrix(1.3333 0 0 -1.3333 170.84 84.087)" d="m0 0v2.363c0 0.528-0.287 0.749-0.826 0.749-0.312 0-0.679-0.144-0.851-0.402v-2.71h-0.581v3.562l0.416 0.03 0.098-0.378h0.018c0.251 0.27 0.649 0.426 1.059 0.426 0.771 0 1.242-0.426 1.242-1.277v-2.363z"/>
   <path transform="matrix(1.3333 0 0 -1.3333 173.64 80.681)" d="m0 0c0-0.504 0.3-0.624 0.71-0.624 0.562 0 0.734 0.204 0.734 0.624 0 0.468-0.215 0.629-0.722 0.629-0.533 0-0.722-0.203-0.722-0.629m0.152-1.991c-0.201-0.138-0.299-0.33-0.299-0.498 0-0.36 0.257-0.563 0.887-0.563 0.826 0 1.034 0.221 1.034 0.545 0 0.252-0.134 0.384-0.734 0.438zm0.056 1.001c-0.178-0.048-0.275-0.143-0.275-0.263 0-0.121 0.097-0.222 0.318-0.24l0.887-0.072c0.881-0.072 1.169-0.36 1.169-0.864 0-0.654-0.416-1.073-1.554-1.073-0.985 0-1.401 0.384-1.401 0.941 0 0.252 0.122 0.492 0.354 0.672-0.171 0.096-0.306 0.264-0.306 0.498 0 0.227 0.16 0.437 0.453 0.545l6e-3 0.013c-0.263 0.155-0.434 0.419-0.434 0.845 0 0.659 0.361 1.067 1.291 1.067 0.318 0 0.648-0.054 0.899-0.222l0.6 0.234 0.129-0.288-0.442-0.3c0.062-0.137 0.099-0.293 0.099-0.491 0-0.678-0.337-1.055-1.285-1.055-0.172 0-0.343 0.011-0.508 0.053"/>
   <path transform="matrix(1.3333 0 0 -1.3333 184.31 83.551)" d="m0 0c0.704 0 0.973 0.354 0.973 1.373 0 1.025-0.269 1.374-0.973 1.374-0.716 0-0.991-0.349-0.991-1.374s0.275-1.373 0.991-1.373m0-0.48c-1.102 0-1.591 0.528-1.591 1.853s0.496 1.859 1.591 1.859c1.102 0 1.566-0.534 1.566-1.859s-0.47-1.853-1.566-1.853"/>
   <path transform="matrix(1.3333 0 0 -1.3333 187.8 84.087)" d="m0 0v3.136h-0.538v0.438h0.538v0.162c0 0.599 0.355 1.037 1.193 1.037 0.19 0 0.404-0.03 0.538-0.071l-0.036-0.39c-0.116 0.03-0.257 0.047-0.398 0.047-0.508 0-0.716-0.234-0.716-0.629v-0.156h0.937v-0.438h-0.937v-3.136z"/>
   <path transform="matrix(1.3333 0 0 -1.3333 197.75 78.802)" d="m0 0h-0.899v-1.763h0.899c0.648 0 0.961 0.198 0.961 0.888 0 0.653-0.294 0.875-0.961 0.875m0-2.279h-0.899v-1.685h-0.624v4.498h1.523c1.126 0 1.603-0.432 1.603-1.409 0-0.924-0.465-1.404-1.603-1.404"/>
   <path transform="matrix(1.3333 0 0 -1.3333 203.88 81.289)" d="m0 0c-0.013 0.756-0.374 1.043-0.899 1.043-0.619 0-0.894-0.335-0.931-1.043zm-2.411-0.216c0 1.122 0.502 1.751 1.505 1.751 0.869 0 1.438-0.503 1.438-1.649 0-0.09-6e-3 -0.198-0.012-0.276h-2.337c0.03-0.941 0.385-1.265 1.169-1.265 0.366 0 0.678 0.078 0.991 0.228l0.066-0.48c-0.305-0.162-0.684-0.263-1.125-0.263-1.199 0-1.695 0.617-1.695 1.954"/>
   <path transform="matrix(1.3333 0 0 -1.3333 205.74 84.087)" d="m0 0v3.55l0.465 0.03 0.049-0.767h0.012c0.227 0.515 0.624 0.815 1.12 0.815 0.134 0 0.263-0.018 0.361-0.048l-0.036-0.576c-0.111 0.037-0.234 0.048-0.362 0.048-0.569 0-1.028-0.473-1.028-1.241v-1.811z"/>
   <path transform="matrix(1.3333 0 0 -1.3333 210.7 84.183)" d="m0 0c-0.434 0-0.838 0.102-1.119 0.3l0.073 0.492c0.275-0.205 0.692-0.313 1.04-0.313 0.532 0 0.753 0.252 0.753 0.588 0 0.81-1.866 0.432-1.866 1.637 0 0.606 0.434 1.002 1.272 1.002 0.356 0 0.692-0.072 0.986-0.204l-0.049-0.48c-0.307 0.126-0.655 0.192-0.948 0.192-0.435 0-0.71-0.186-0.71-0.48 0-0.761 1.853-0.365 1.853-1.613 0-0.671-0.385-1.121-1.285-1.121"/>
   <path transform="matrix(1.3333 0 0 -1.3333 215.37 83.551)" d="m0 0c0.704 0 0.973 0.354 0.973 1.373 0 1.025-0.269 1.374-0.973 1.374-0.716 0-0.991-0.349-0.991-1.374s0.275-1.373 0.991-1.373m0-0.48c-1.102 0-1.591 0.528-1.591 1.853s0.496 1.859 1.591 1.859c1.102 0 1.566-0.534 1.566-1.859s-0.47-1.853-1.566-1.853"/>
   <path transform="matrix(1.3333 0 0 -1.3333 221.64 84.087)" d="m0 0v2.363c0 0.528-0.287 0.749-0.826 0.749-0.312 0-0.679-0.144-0.851-0.402v-2.71h-0.581v3.562l0.416 0.03 0.098-0.378h0.018c0.251 0.27 0.649 0.426 1.059 0.426 0.771 0 1.242-0.426 1.242-1.277v-2.363z"/>
   <path transform="matrix(1.3333 0 0 -1.3333 225.04 84.183)" d="m0 0c-0.434 0-0.838 0.102-1.119 0.3l0.073 0.492c0.275-0.205 0.692-0.313 1.04-0.313 0.532 0 0.753 0.252 0.753 0.588 0 0.81-1.866 0.432-1.866 1.637 0 0.606 0.434 1.002 1.272 1.002 0.356 0 0.692-0.072 0.986-0.204l-0.049-0.48c-0.307 0.126-0.655 0.192-0.948 0.192-0.435 0-0.71-0.186-0.71-0.48 0-0.761 1.853-0.365 1.853-1.613 0-0.671-0.385-1.121-1.285-1.121"/>
   <path transform="matrix(1.3333 0 0 -1.3333 235.92 79.321)" d="m0 0 0.667-2.663 0.11-0.473h0.018l0.092 0.473 0.575 2.663h0.569l-0.881-3.574h-0.722l-0.612 2.512-0.104 0.48h-0.018l-0.11-0.48-0.631-2.512h-0.709l-0.924 3.574h0.581l0.606-2.645 0.097-0.474h0.019l0.105 0.474 0.654 2.645z"/>
   <path transform="matrix(1.3333 0 0 -1.3333 240.01 84.087)" d="m0 0v3.556l0.581 0.03v-3.586zm0.293 4.174c-0.25 0-0.373 0.077-0.373 0.305 0 0.198 0.123 0.306 0.373 0.306 0.251 0 0.374-0.108 0.374-0.306 0-0.209-0.123-0.305-0.374-0.305"/>
   <path transform="matrix(1.3333 0 0 -1.3333 243.48 79.913)" d="m0 0v-2.195c0-0.372 0.202-0.522 0.532-0.522 0.105 0 0.233 0.018 0.306 0.049l0.037-0.433c-0.11-0.053-0.313-0.089-0.508-0.089-0.624 0-0.948 0.341-0.948 0.977v2.213h-0.508v0.444h0.527l0.109 0.887 0.453 0.048v-0.935h0.899v-0.444z"/>
   <path transform="matrix(1.3333 0 0 -1.3333 248.77 84.087)" d="m0 0v2.369c0 0.48-0.264 0.743-0.826 0.743-0.38 0-0.71-0.179-0.857-0.407v-2.705h-0.575v4.731l0.575 0.037v-1.038l-6e-3 -0.48 0.012-6e-3c0.263 0.27 0.636 0.396 1.022 0.396 0.796 0 1.23-0.456 1.23-1.271v-2.369z"/>
   <path transform="matrix(1.3333 0 0 -1.3333 -11.339 124.72)" d="m80.97 27.775h0.643v-4.498h-0.643z"/>
   <path transform="matrix(1.3333 0 0 -1.3333 102.1 93.687)" d="m0 0v2.363c0 0.528-0.287 0.749-0.826 0.749-0.312 0-0.679-0.144-0.851-0.402v-2.71h-0.581v3.562l0.416 0.03 0.098-0.378h0.018c0.251 0.27 0.649 0.426 1.059 0.426 0.771 0 1.242-0.426 1.242-1.277v-2.363z"/>
   <path transform="matrix(1.3333 0 0 -1.3333 105.23 89.513)" d="m0 0v-2.195c0-0.372 0.202-0.522 0.532-0.522 0.105 0 0.233 0.018 0.306 0.049l0.037-0.433c-0.11-0.053-0.313-0.089-0.508-0.089-0.624 0-0.948 0.341-0.948 0.977v2.213h-0.508v0.444h0.527l0.109 0.887 0.453 0.048v-0.935h0.899v-0.444z"/>
   <path transform="matrix(1.3333 0 0 -1.3333 110.28 90.889)" d="m0 0c-0.013 0.756-0.374 1.043-0.899 1.043-0.619 0-0.894-0.335-0.931-1.043zm-2.411-0.216c0 1.122 0.502 1.751 1.505 1.751 0.869 0 1.438-0.503 1.438-1.649 0-0.09-6e-3 -0.198-0.012-0.276h-2.337c0.03-0.941 0.385-1.265 1.169-1.265 0.366 0 0.678 0.078 0.991 0.228l0.066-0.48c-0.305-0.162-0.684-0.263-1.125-0.263-1.199 0-1.695 0.617-1.695 1.954"/>
   <path transform="matrix(1.3333 0 0 -1.3333 112.25 93.687)" d="m0 0v4.731l0.581 0.037v-4.768z"/>
   <path transform="matrix(1.3333 0 0 -1.3333 114.74 93.687)" d="m0 0v4.731l0.581 0.037v-4.768z"/>
   <path transform="matrix(1.3333 0 0 -1.3333 120 90.889)" d="m0 0c-0.013 0.756-0.374 1.043-0.899 1.043-0.619 0-0.894-0.335-0.931-1.043zm-2.411-0.216c0 1.122 0.502 1.751 1.505 1.751 0.869 0 1.438-0.503 1.438-1.649 0-0.09-6e-3 -0.198-0.012-0.276h-2.337c0.03-0.941 0.385-1.265 1.169-1.265 0.366 0 0.678 0.078 0.991 0.228l0.066-0.48c-0.305-0.162-0.684-0.263-1.125-0.263-1.199 0-1.695 0.617-1.695 1.954"/>
   <path transform="matrix(1.3333 0 0 -1.3333 124.77 89.761)" d="m0 0c-0.214 0.096-0.478 0.162-0.74 0.162-0.789 0-1.083-0.372-1.083-1.295 0-1.008 0.373-1.38 1.071-1.38 0.287 0 0.557 0.073 0.776 0.204l0.043-0.467c-0.213-0.144-0.556-0.246-0.942-0.246-1.021 0-1.548 0.575-1.548 1.889 0 1.205 0.478 1.817 1.567 1.817 0.324 0 0.654-0.072 0.893-0.174z"/>
   <path transform="matrix(1.3333 0 0 -1.3333 126.93 89.513)" d="m0 0v-2.195c0-0.372 0.202-0.522 0.532-0.522 0.105 0 0.233 0.018 0.306 0.049l0.037-0.433c-0.11-0.053-0.313-0.089-0.508-0.089-0.624 0-0.948 0.341-0.948 0.977v2.213h-0.508v0.444h0.527l0.109 0.887 0.453 0.048v-0.935h0.899v-0.444z"/>
   <path transform="matrix(1.3333 0 0 -1.3333 132.82 92.12)" d="m0 0c0-0.792-0.459-1.241-1.42-1.241-0.954 0-1.413 0.455-1.413 1.241v2.399h0.575v-2.387c0-0.48 0.281-0.732 0.844-0.732 0.551 0 0.839 0.246 0.839 0.732v2.387h0.575z"/>
   <path transform="matrix(1.3333 0 0 -1.3333 136.77 91.512)" d="m0 0c-0.092 0.054-0.361 0.132-0.729 0.132-0.605 0-0.869-0.24-0.869-0.666 0-0.509 0.313-0.684 0.735-0.684 0.453 0 0.863 0.3 0.863 0.6zm0.079-1.193-0.018 6e-3c-0.214-0.307-0.612-0.499-1.083-0.499-0.667 0-1.12 0.342-1.12 1.146 0 0.672 0.441 1.085 1.309 1.085 0.312 0 0.612-0.06 0.839-0.137v0.353c0 0.564-0.257 0.762-0.851 0.762-0.385 0-0.697-0.066-1.021-0.216l-0.056 0.474c0.349 0.156 0.74 0.234 1.175 0.234 0.961 0 1.322-0.396 1.322-1.338v-2.308h-0.441z"/>
   <path transform="matrix(1.3333 0 0 -1.3333 139.01 93.687)" d="m0 0v4.731l0.581 0.037v-4.768z"/>
   <path transform="matrix(1.3333 0 0 -1.3333 146.03 88.458)" d="m0 0h-0.942v-3.352h0.948c0.899 0 1.321 0.335 1.321 1.697 0 1.295-0.385 1.655-1.327 1.655m0.019-3.922h-1.585v4.498h1.572c1.395 0 1.976-0.654 1.976-2.231 0-1.637-0.642-2.267-1.963-2.267"/>
   <path transform="matrix(1.3333 0 0 -1.3333 150.09 93.687)" d="m0 0v3.556l0.581 0.03v-3.586zm0.293 4.174c-0.25 0-0.373 0.077-0.373 0.305 0 0.198 0.123 0.306 0.373 0.306 0.251 0 0.374-0.108 0.374-0.306 0-0.209-0.123-0.305-0.374-0.305"/>
   <path transform="matrix(1.3333 0 0 -1.3333 153.74 93.783)" d="m0 0c-0.434 0-0.838 0.102-1.119 0.3l0.073 0.492c0.275-0.205 0.692-0.313 1.04-0.313 0.532 0 0.753 0.252 0.753 0.588 0 0.81-1.866 0.432-1.866 1.637 0 0.606 0.434 1.002 1.272 1.002 0.356 0 0.692-0.072 0.986-0.204l-0.049-0.48c-0.307 0.126-0.655 0.192-0.948 0.192-0.435 0-0.71-0.186-0.71-0.48 0-0.761 1.853-0.365 1.853-1.613 0-0.671-0.385-1.121-1.285-1.121"/>
   <path transform="matrix(1.3333 0 0 -1.3333 159.16 91.512)" d="m0 0c-0.092 0.054-0.361 0.132-0.729 0.132-0.605 0-0.869-0.24-0.869-0.666 0-0.509 0.313-0.684 0.735-0.684 0.453 0 0.863 0.3 0.863 0.6zm0.079-1.193-0.018 6e-3c-0.214-0.307-0.612-0.499-1.083-0.499-0.667 0-1.12 0.342-1.12 1.146 0 0.672 0.441 1.085 1.309 1.085 0.312 0 0.612-0.06 0.839-0.137v0.353c0 0.564-0.257 0.762-0.851 0.762-0.385 0-0.697-0.066-1.021-0.216l-0.056 0.474c0.349 0.156 0.74 0.234 1.175 0.234 0.961 0 1.322-0.396 1.322-1.338v-2.308h-0.441z"/>
   <path transform="matrix(1.3333 0 0 -1.3333 163.26 89.521)" d="m0 0c-0.385 0-0.703-0.156-0.893-0.426v-1.853c0.147-0.234 0.453-0.438 0.9-0.438 0.568 0 0.948 0.27 0.948 1.38 0 1.085-0.355 1.337-0.955 1.337m0.086-3.19c-0.453 0-0.832 0.168-1.059 0.443l-0.018-6e-3 -0.092-0.372h-0.385v4.738l0.575 0.036v-1.049l-6e-3 -0.48 0.012-6e-3c0.263 0.27 0.637 0.402 1.04 0.402 0.851 0 1.389-0.486 1.389-1.842 0-1.343-0.532-1.864-1.456-1.864"/>
   <path transform="matrix(1.3333 0 0 -1.3333 166.64 93.687)" d="m0 0v3.556l0.581 0.03v-3.586zm0.293 4.174c-0.25 0-0.373 0.077-0.373 0.305 0 0.198 0.123 0.306 0.373 0.306 0.251 0 0.374-0.108 0.374-0.306 0-0.209-0.123-0.305-0.374-0.305"/>
   <path transform="matrix(1.3333 0 0 -1.3333 169.17 93.687)" d="m0 0v4.731l0.581 0.037v-4.768z"/>
   <path transform="matrix(1.3333 0 0 -1.3333 171.7 93.687)" d="m0 0v3.556l0.581 0.03v-3.586zm0.293 4.174c-0.25 0-0.373 0.077-0.373 0.305 0 0.198 0.123 0.306 0.373 0.306 0.251 0 0.374-0.108 0.374-0.306 0-0.209-0.123-0.305-0.374-0.305"/>
   <path transform="matrix(1.3333 0 0 -1.3333 175.13 89.513)" d="m0 0v-2.195c0-0.372 0.202-0.522 0.532-0.522 0.105 0 0.233 0.018 0.306 0.049l0.037-0.433c-0.11-0.053-0.313-0.089-0.508-0.089-0.624 0-0.948 0.341-0.948 0.977v2.213h-0.508v0.444h0.527l0.109 0.887 0.453 0.048v-0.935h0.899v-0.444z"/>
   <path transform="matrix(1.3333 0 0 -1.3333 177.53 93.687)" d="m0 0v3.556l0.581 0.03v-3.586zm0.293 4.174c-0.25 0-0.373 0.077-0.373 0.305 0 0.198 0.123 0.306 0.373 0.306 0.251 0 0.374-0.108 0.374-0.306 0-0.209-0.123-0.305-0.374-0.305"/>
   <path transform="matrix(1.3333 0 0 -1.3333 182.85 90.889)" d="m0 0c-0.013 0.756-0.374 1.043-0.899 1.043-0.619 0-0.894-0.335-0.931-1.043zm-2.411-0.216c0 1.122 0.502 1.751 1.505 1.751 0.869 0 1.438-0.503 1.438-1.649 0-0.09-6e-3 -0.198-0.012-0.276h-2.337c0.03-0.941 0.385-1.265 1.169-1.265 0.366 0 0.678 0.078 0.991 0.228l0.066-0.48c-0.305-0.162-0.684-0.263-1.125-0.263-1.199 0-1.695 0.617-1.695 1.954"/>
   <path transform="matrix(1.3333 0 0 -1.3333 185.92 93.783)" d="m0 0c-0.434 0-0.838 0.102-1.119 0.3l0.073 0.492c0.275-0.205 0.692-0.313 1.04-0.313 0.532 0 0.753 0.252 0.753 0.588 0 0.81-1.866 0.432-1.866 1.637 0 0.606 0.434 1.002 1.272 1.002 0.356 0 0.692-0.072 0.986-0.204l-0.049-0.48c-0.307 0.126-0.655 0.192-0.948 0.192-0.435 0-0.71-0.186-0.71-0.48 0-0.761 1.853-0.365 1.853-1.613 0-0.671-0.385-1.121-1.285-1.121"/>
  </g>
 </g>
</svg>
