<?xml version="1.0" encoding="UTF-8"?>
<!-- Created with Inkscape (http://www.inkscape.org/) -->
<svg width="106.37" height="113.13" version="1.1" viewBox="0 0 106.37 113.13" xmlns="http://www.w3.org/2000/svg" xmlns:xlink="http://www.w3.org/1999/xlink">
 <g transform="translate(-1.7792e-6 .00043985)">
  <path transform="matrix(1.3333 0 0 -1.3333 53.227 19.378)" d="m0 0c0.127-0.077 0.164-0.091 0.166-0.172v-12.465c-0.12-10.647 0.252-41.88-0.14-43.524-1.029-0.01-2.523-1e-3 -3.61-9e-3 -1.933-0.068-3.894-0.229-5.859-9e-3 -0.587 0.105-0.729 0.632-0.721 1.157-0.069 3.317-0.076 1.102-0.175 4.366-0.153 1.652-1.737 3.164-3.408 3.177-2.241 0.141-4.489 0.18-6.731 0.141-1.543-0.114-2.895 0.934-3.293 2.439-0.258 0.923 0.032 1.67-0.013 2.547-0.017 0.569-0.258 1.105-0.634 1.527-0.289 0.354-0.69 0.689-0.721 1.16-0.022 0.277 0.149 0.564 0.209 0.819 0.141 0.451-0.244 0.769-0.477 1.112-0.887 1.137 0.836 3.31-0.746 3.961-0.996 0.312-2.499 0.283-2.669 1.615 0.15 2.619 3.801 6.012 4.424 8.859 0.161 1.315 0.202 2.799 0.188 4.159-0.401 9.73 9.246 19.265 18.789 19.552 1.775 0.106 3.735 0.261 5.406-0.405z" fill="#67bfd6"/>
  <path transform="matrix(1.3333 0 0 -1.3333 55.776 21.534)" d="m0 0c0.115-0.072 0.149-0.084 0.151-0.16v-11.566c-0.109-9.878 0.229-38.859-0.128-40.384-0.935-9e-3 -2.294-1e-3 -3.282-9e-3 -1.757-0.063-3.541-0.212-5.327-8e-3 -0.534 0.097-0.662 0.586-0.656 1.073-0.063 3.078-0.069 1.024-0.158 4.052-0.14 1.533-1.58 2.936-3.099 2.948-2.038 0.13-4.082 0.166-6.121 0.13-1.403-0.105-2.632 0.867-2.993 2.263-0.235 0.857 0.029 1.55-0.013 2.364-0.015 0.528-0.234 1.025-0.576 1.417-0.263 0.328-0.627 0.639-0.656 1.076-0.02 0.257 0.136 0.524 0.19 0.76 0.128 0.418-0.222 0.713-0.434 1.031-0.806 1.055 0.761 3.072-0.677 3.676-0.906 0.289-2.273 0.262-2.427 1.498 0.136 2.431 3.456 5.579 4.022 8.221 0.146 1.22 0.184 2.596 0.171 3.859-0.364 9.028 8.407 17.875 17.084 18.142 1.614 0.097 3.396 0.241 4.915-0.376z" fill="#0096b7"/>
  <path transform="matrix(1.3333 0 0 -1.3333 53.144 19.378)" d="m0 0c-0.127-0.077-0.164-0.091-0.166-0.172v-12.465c0.12-10.647-0.252-41.88 0.14-43.524 1.029-0.01 2.523-1e-3 3.61-9e-3 1.933-0.068 3.894-0.229 5.859-9e-3 0.587 0.105 0.729 0.632 0.721 1.157 0.069 3.317 0.076 1.102 0.175 4.366 0.153 1.652 1.737 3.164 3.408 3.177 2.241 0.141 4.489 0.18 6.731 0.141 1.543-0.114 2.895 0.934 3.293 2.439 0.258 0.923-0.032 1.67 0.013 2.547 0.017 0.569 0.258 1.105 0.634 1.527 0.289 0.354 0.69 0.689 0.721 1.16 0.022 0.277-0.149 0.564-0.209 0.819-0.141 0.451 0.244 0.769 0.477 1.112 0.887 1.137-0.836 3.31 0.746 3.961 0.996 0.312 2.499 0.283 2.669 1.615-0.15 2.619-3.801 6.012-4.424 8.859-0.161 1.315-0.202 2.799-0.188 4.159 0.401 9.73-9.246 19.265-18.789 19.552-1.775 0.106-3.735 0.261-5.406-0.405z" fill="#67bfd6"/>
  <path transform="matrix(1.3333 0 0 -1.3333 50.595 21.534)" d="m0 0c-0.115-0.072-0.149-0.084-0.151-0.16v-11.566c0.109-9.878-0.229-38.859 0.128-40.384 0.935-9e-3 2.294-1e-3 3.282-9e-3 1.757-0.063 3.541-0.212 5.327-8e-3 0.534 0.097 0.662 0.586 0.656 1.073 0.063 3.078 0.069 1.024 0.158 4.052 0.14 1.533 1.58 2.936 3.099 2.948 2.038 0.13 4.082 0.166 6.121 0.13 1.403-0.105 2.632 0.867 2.993 2.263 0.235 0.857-0.029 1.55 0.013 2.364 0.015 0.528 0.234 1.025 0.576 1.417 0.263 0.328 0.627 0.639 0.656 1.076 0.02 0.257-0.136 0.524-0.19 0.76-0.128 0.418 0.222 0.713 0.434 1.031 0.806 1.055-0.761 3.072 0.677 3.676 0.906 0.289 2.273 0.262 2.427 1.498-0.136 2.431-3.456 5.579-4.022 8.221-0.146 1.22-0.184 2.596-0.171 3.859 0.364 9.028-8.407 17.875-17.084 18.142-1.614 0.097-3.396 0.241-4.915-0.376z" fill="#0096b7"/>
  <path transform="matrix(1.3333 0 0 -1.3333 55.44 94.395)" d="m0 0v25.577c0 0.868 0.599 1.613 1.441 1.82 5.419 1.33 9.407 5.845 9.407 11.212 0 6.413-5.694 11.611-12.718 11.611s-12.718-5.198-12.718-11.611c0-5.367 3.988-9.882 9.406-11.212 0.843-0.207 1.442-0.952 1.442-1.82v-25.577z" fill="#fcfcfc"/>
  <path transform="matrix(1.3333 0 0 -1.3333 56.724 43.109)" d="m0 0c-0.3 0-0.543 0.244-0.543 0.544s0.243 0.544 0.543 0.544 0.544-0.244 0.544-0.544-0.244-0.544-0.544-0.544m-2.99 2.447c-0.3 0-0.543 0.243-0.543 0.543s0.243 0.544 0.543 0.544 0.544-0.244 0.544-0.544-0.244-0.543-0.544-0.543m0.544-13.048c0-0.3-0.244-0.544-0.544-0.544s-0.543 0.244-0.543 0.544c0 0.299 0.243 0.544 0.543 0.544s0.544-0.245 0.544-0.544m-3.563 8.366c-0.3 0-0.544 0.244-0.544 0.543 0 0.3 0.244 0.544 0.544 0.544s0.543-0.244 0.543-0.544c0-0.299-0.243-0.543-0.543-0.543m6.009 4.138c-0.749 0-1.359-0.61-1.359-1.359 0-0.592 0.381-1.097 0.911-1.283v-1.64l-2.18-2.767v6.826c0.575 0.159 0.997 0.687 0.997 1.31 0 0.749-0.609 1.359-1.359 1.359-0.749 0-1.359-0.61-1.359-1.359 0-0.589 0.377-1.092 0.903-1.28v-8.795l-2.119 1.554v2.555c0.532 0.184 0.915 0.69 0.915 1.284 0 0.75-0.609 1.36-1.359 1.36-0.749 0-1.359-0.61-1.359-1.36 0-0.619 0.416-1.143 0.985-1.306v-2.741c0-0.13 0.041-0.253 0.146-0.33l2.791-2.043v-1.209c-0.526-0.188-0.903-0.691-0.903-1.28 0-0.75 0.61-1.359 1.359-1.359 0.75 0 1.359 0.609 1.359 1.359 0 0.624-0.422 1.151-0.997 1.31v2.841c0.028 0.02 2.924 3.675 2.924 3.675 0.057 0.072 0.074 0.161 0.074 0.253v1.758c0.57 0.162 0.989 0.687 0.989 1.308 0 0.749-0.609 1.359-1.359 1.359" fill="#657176"/>
  <g fill="#94c11f">
   <path transform="matrix(1.3333 0 0 -1.3333 53.1 32.187)" d="m0 0c-0.24-0.338-0.543-0.881-0.543-1.477 0-1.006 0.301-1.006 0.544-1.006 0.242 0 0.543 0 0.543 1.006 0 0.592-0.304 1.138-0.544 1.477m1e-3 -3.298c-0.902 0-1.36 0.613-1.36 1.821 0 1.325 1.028 2.366 1.072 2.409 0.159 0.159 0.416 0.159 0.576 0 0.043-0.043 1.071-1.084 1.071-2.409 0-1.208-0.457-1.821-1.359-1.821"/>
   <path transform="matrix(1.3333 0 0 -1.3333 63.433 39.682)" d="m0 0c-0.806-0.291-0.856-0.521-0.737-0.85 0.169-0.468 0.608-0.364 1.11-0.183 0.551 0.199 0.95 0.67 1.179 1.009-0.495 0.145-1.063 0.201-1.552 0.024m-1.504-1.126c-0.349 0.967 0.263 1.545 1.227 1.893 0.841 0.303 1.895 0.133 2.602-0.209 0.199-0.096 0.285-0.334 0.193-0.536-0.025-0.056-0.638-1.378-1.868-1.822-0.964-0.348-1.803-0.299-2.154 0.674"/>
   <path transform="matrix(1.3333 0 0 -1.3333 60.976 43.978)" d="m0 0c-0.126-0.207-0.283-0.464 0.576-0.987 0.448-0.273 1.024-0.342 1.545-0.305-0.163 0.381-0.47 0.923-0.979 1.233-0.506 0.308-0.889 0.475-1.142 0.059m0.152-1.684c-1.032 0.629-1.317 1.338-0.849 2.108 0.465 0.763 1.201 0.86 2.263 0.214 1.131-0.689 1.486-2.108 1.5-2.168 0.053-0.218-0.081-0.438-0.299-0.492-0.523-0.127-1.699-0.219-2.615 0.338"/>
   <path transform="matrix(1.3333 0 0 -1.3333 42.186 46.787)" d="m0 0c0.519-0.038 1.101 0.035 1.544 0.304 0.859 0.524 0.702 0.781 0.576 0.987-0.241 0.396-0.586 0.28-1.142-0.058-0.505-0.308-0.813-0.851-0.978-1.233m-0.647-0.731c-0.218 0.054-0.352 0.274-0.299 0.492 0.014 0.06 0.369 1.479 1.5 2.168 1.062 0.646 1.799 0.548 2.263-0.214 0.469-0.77 0.183-1.48-0.849-2.108-0.786-0.479-1.924-0.51-2.615-0.338"/>
   <path transform="matrix(1.3333 0 0 -1.3333 40.887 40.439)" d="m0 0c0.229-0.339 0.628-0.844 1.179-1.043 0.538-0.194 0.915-0.356 1.109 0.183 0.106 0.292 0.124 0.565-0.737 0.876-0.492 0.177-1.051 0.131-1.551-0.016m0.902-1.811c-1.231 0.444-1.843 1.784-1.869 1.84-0.091 0.201-6e-3 0.448 0.194 0.544 0.738 0.358 1.78 0.512 2.601 0.216 0.991-0.358 1.581-0.949 1.227-1.927-0.409-1.136-1.254-0.997-2.153-0.673"/>
   <path transform="matrix(1.3333 0 0 -1.3333 45.285 38.652)" d="m0 0c-0.825 0.942-1.038 2.233-1.091 2.915 0.669-0.141 1.917-0.522 2.745-1.469 0.869-0.992 0.92-1.521 0.766-1.845-7e-3 7e-3 -1.397 1.515-1.495 1.622-0.136 0.147-0.366 0.157-0.513 0.022-0.148-0.137-0.159-0.366-0.022-0.514 0.097-0.106 1.426-1.563 1.514-1.646-0.654-0.399-1.383 0.32-1.904 0.915m2.268 1.984c-1.385 1.582-3.649 1.813-3.744 1.822-0.111 0.011-0.223-0.026-0.307-0.099-0.085-0.074-0.135-0.179-0.139-0.292-4e-3 -0.095-0.076-2.37 1.309-3.952 1.003-1.145 2.117-1.839 3.27-0.831 1.291 1.13 0.397 2.454-0.389 3.352"/>
   <path transform="matrix(1.3333 0 0 -1.3333 58.458 39.517)" d="m0 0c0.085 0.086 1.356 1.594 1.449 1.704 0.13 0.153 0.111 0.382-0.042 0.512-0.152 0.13-0.382 0.111-0.512-0.042-0.094-0.111-1.424-1.672-1.431-1.679-0.166 0.318-0.136 0.849 0.693 1.874 0.791 0.979 2.023 1.408 2.686 1.575-0.027-0.683-0.189-1.982-0.976-2.955-0.497-0.615-1.198-1.362-1.867-0.989m-0.735-0.482c1.192-0.962 2.278-0.226 3.236 0.958 1.321 1.635 1.161 3.905 1.153 4-9e-3 0.113-0.063 0.216-0.15 0.286s-0.2 0.102-0.311 0.087c-0.095-0.013-2.348-0.332-3.67-1.966-0.75-0.929-1.592-2.287-0.258-3.365"/>
  </g>
 </g>
</svg>
