<svg xmlns="http://www.w3.org/2000/svg" width="1338.56" height="293.907" viewBox="0 0 1338.56 293.907"><path d="M100.293 101.059H3049.74V2103.9H100.293z" style="fill:#fff;fill-opacity:1;fill-rule:nonzero;stroke:none" transform="matrix(.13333 0 0 -.13333 0 293.907)"/><path d="M157.012 158.27H2993.03v1890.7H157.012z" style="fill:#2a3c93;fill-opacity:1;fill-rule:nonzero;stroke:none" transform="matrix(.13333 0 0 -.13333 0 293.907)"/><path d="m1514.59 1637.02 59.84 43.67 59.85-43.67-22.78 70.63 60.79 43.67h-74.93l-22.93 71.48-22.93-71.56-74.88.08 60.74-43.67zm-309.69-83.2 59.84 43.67 59.81-43.67-22.74 70.63 60.75 43.67h-74.93l-22.92 71.56-22.93-71.64-74.89.08 60.74-43.67zm-166.76-41.25-22.93-71.64-74.874.08 60.734-43.67-22.765-70.63 59.835 43.67 59.84-43.67-22.77 70.63 60.74 43.67h-74.88zm-83.117-451.49 59.807-43.67-22.736 70.62 60.736 43.68h-74.877l-22.93 71.56-22.929-71.72-74.918.16 60.777-43.68-22.769-70.62zm106.047-239.6-22.93 71.559-22.93-71.641-74.874.082 60.734-43.671-22.765-70.629 59.835 43.75 59.84-43.75-22.77 70.629 60.74 43.671zm227.03-227.031-22.93 71.481-22.89-71.559-74.92.078 60.74-43.668-22.73-70.633 59.84 43.672 59.8-43.672-22.73 70.633 60.74 43.668zm309.3-82.269-22.93 71.558-22.89-71.636-74.92.078 60.74-43.668-22.73-70.633 59.84 43.672 59.8-43.672-22.77 70.633 60.78 43.668zm309.3 82.269-22.89 71.481-22.97-71.559-74.84.078 60.7-43.668-22.73-70.633 59.84 43.672 59.84-43.672-22.81 70.633 60.78 43.668zm227.11 227.031-22.97 71.559-22.97-71.641-74.84.082 60.78-43.671L2051 707.18l59.84 43.75 59.84-43.75-22.81 70.629 60.78 43.671zm157.11 311.09H2216l-22.97 71.56-22.89-71.64-74.92.08 60.78-43.67-22.74-70.63 59.77 43.75 59.84-43.75-22.73 70.63zm-239.93 195.08 59.84 43.67 59.85-43.67-22.81 70.63 60.78 43.59h-74.85l-22.97 71.56-22.96-71.64-74.85.08 60.78-43.59zm-166.32 411.95-22.89-71.64-74.92.16 60.7-43.75-22.73-70.63 59.92 43.75 59.76-43.75-22.73 70.63 60.78 43.75h-75z" style="fill:#fbca07;fill-opacity:1;fill-rule:nonzero;stroke:none" transform="matrix(.13333 0 0 -.13333 0 293.907)"/><path d="M3404.21 1340v465.29h93.95v-206.62l189.8 206.62h126.31l-175.2-181.23L3823.8 1340h-121.56l-127.91 218.36-76.17-77.75V1340zm538.29 168.54c0-33.44 7.94-59.05 23.8-76.82 15.88-17.77 35.44-26.66 58.72-26.66 23.27 0 42.79 8.89 58.56 26.66 15.76 17.77 23.64 43.59 23.64 77.44q0 49.515-23.64 76.17c-15.77 17.78-35.29 26.66-58.56 26.66-23.28 0-42.84-8.88-58.72-26.66-15.86-17.77-23.8-43.37-23.8-76.79m-91.4 4.75c0 29.62 7.29 58.29 21.9 86.01 14.59 27.72 35.27 48.88 62.04 63.47 26.77 14.61 56.65 21.91 89.66 21.91 51 0 92.78-16.56 125.37-49.67 32.58-33.12 48.88-74.96 48.88-125.53 0-50.99-16.46-93.26-49.36-126.79-32.9-33.54-74.31-50.31-124.25-50.31-30.89 0-60.36 6.99-88.39 20.95-28.04 13.97-49.36 34.44-63.95 61.42-14.61 26.97-21.9 59.82-21.9 98.54M4482.37 1340v337.06h89.18V1340Zm0 382.77v82.52h89.18v-82.52zm-250.41-45.71h49.51v25.39c0 28.35 3.01 49.51 9.04 63.48 6.03 13.96 17.14 25.33 33.32 34.12 16.19 8.78 36.66 13.17 61.42 13.17 25.39 0 50.25-3.81 74.58-11.42l-12.05-62.21c-14.18 3.38-27.84 5.08-40.95 5.08-12.91 0-22.17-3.02-27.77-9.05-5.61-6.03-8.41-17.61-8.41-34.76v-23.8h66.65v-70.15h-66.65V1340h-89.18v266.91h-49.51zM4972.4 1340h-89.18v172.02c0 36.39-1.91 59.93-5.72 70.62-3.81 10.68-10 18.99-18.56 24.92-8.58 5.92-18.89 8.89-30.95 8.89-15.45 0-29.31-4.24-41.57-12.7-12.28-8.46-20.69-19.69-25.24-33.65-4.55-13.97-6.82-39.78-6.82-77.44V1340h-89.19v337.06h82.84v-49.51c29.4 38.09 66.44 57.13 111.08 57.13 19.68 0 37.66-3.55 53.96-10.64 16.29-7.09 28.61-16.13 36.97-27.13s14.18-23.49 17.46-37.46c3.27-13.96 4.92-33.95 4.92-59.98zm276.44 161.87c-11.43-3.81-29.51-8.36-54.27-13.65-24.75-5.29-40.94-10.47-48.56-15.55-11.63-8.26-17.45-18.72-17.45-31.42 0-12.49 4.65-23.28 13.96-32.38 9.31-9.09 21.15-13.64 35.55-13.64 16.07 0 31.41 5.28 46.02 15.86 10.78 8.04 17.87 17.89 21.26 29.52 2.33 7.61 3.49 22.1 3.49 43.48zm-119.34 72.36-80.92 14.6c9.09 32.58 24.75 56.7 46.97 72.36s55.22 23.49 99.02 23.49c39.78 0 69.4-4.71 88.87-14.12 19.46-9.43 33.16-21.38 41.1-35.87 7.93-14.49 11.9-41.1 11.9-79.83l-.95-104.1c0-29.62 1.43-51.46 4.29-65.53 2.85-14.08 8.19-29.16 16.02-45.23h-88.23c-2.33 5.92-5.19 14.71-8.57 26.35-1.48 5.28-2.54 8.77-3.17 10.47-15.23-14.82-31.53-25.92-48.88-33.32-17.35-7.41-35.86-11.12-55.54-11.12-34.71 0-62.05 9.42-82.04 28.25-20 18.83-30 42.63-30 71.41q0 28.575 13.65 50.94c9.09 14.92 21.85 26.35 38.24 34.28 16.4 7.94 40.04 14.86 70.94 20.79 41.68 7.82 70.57 15.13 86.64 21.89v8.89c0 17.15-4.23 29.37-12.7 36.66-8.45 7.3-24.43 10.96-47.91 10.96-15.87 0-28.26-3.13-37.14-9.37-8.89-6.25-16.08-17.2-21.59-32.85M5730.95 1340h-89.18v172.02c0 36.39-1.9 59.93-5.71 70.62-3.81 10.68-10 18.99-18.57 24.92-8.57 5.92-18.88 8.89-30.95 8.89-15.44 0-29.3-4.24-41.57-12.7s-20.69-19.69-25.23-33.65c-4.55-13.97-6.83-39.78-6.83-77.44V1340h-89.19v337.06h82.84v-49.51c29.41 38.09 66.44 57.13 111.09 57.13 19.68 0 37.65-3.55 53.95-10.64 16.29-7.09 28.62-16.13 36.98-27.13s14.18-23.49 17.46-37.46c3.27-13.96 4.91-33.95 4.91-59.98zm54.59 0v69.51l126.32 145.04c20.73 23.69 36.07 40.52 46.01 50.47-10.36-.64-24.01-1.06-40.93-1.27l-119.03-.64v73.95h278.67v-63.15l-128.86-148.54-45.38-49.2c24.75 1.48 40.09 2.23 46.02 2.23h138.06V1340zm360.87 0v337.06h89.18V1340Zm0 382.77v82.52h89.18v-82.52zm380.86-185.36c-.64 25.81-7.3 45.44-19.99 58.88-12.7 13.43-28.15 20.16-46.35 20.16-19.46 0-35.55-7.1-48.24-21.27-12.7-14.18-18.94-33.44-18.72-57.77zm-5.08-90.13 88.87-14.92c-11.43-32.58-29.47-57.4-54.11-74.43-24.66-17.03-55.5-25.55-92.52-25.55-58.62 0-102 19.16-130.13 57.44-22.22 30.69-33.33 69.41-33.33 116.18 0 55.86 14.61 99.6 43.81 131.23s66.11 47.45 110.76 47.45c50.15 0 89.71-16.56 118.7-49.67 28.98-33.12 42.84-83.85 41.57-152.19h-223.44c.65-26.45 7.84-47.03 21.59-61.73q20.64-22.05 51.42-22.05c13.97 0 25.71 3.8 35.23 11.42s16.71 19.88 21.58 36.82M6773.87 1340h-89.18v337.06h82.83v-47.92c14.17 22.64 26.93 37.55 38.24 44.75 11.32 7.18 24.17 10.79 38.57 10.79 20.31 0 39.88-5.61 58.72-16.83l-27.62-77.75c-15.03 9.72-28.99 14.6-41.89 14.6-12.49 0-23.07-3.44-31.74-10.31-8.68-6.89-15.5-19.32-20.47-37.3-4.98-17.99-7.46-55.65-7.46-112.99zm322.15 337.06v-71.09h-60.94v-135.84c0-27.51.58-43.54 1.75-48.09 1.16-4.55 3.81-8.3 7.93-11.26 4.13-2.97 9.15-4.45 15.08-4.45 8.25 0 20.2 2.86 35.86 8.57l7.61-69.19c-20.73-8.88-44.22-13.33-70.45-13.33-16.08 0-30.58 2.7-43.48 8.1-12.91 5.39-22.38 12.37-28.41 20.95-6.03 8.56-10.21 20.15-12.54 34.74-1.89 10.37-2.85 31.32-2.85 62.85v146.95h-40.94v71.09h40.94v66.96l89.5 52.05v-119.01zM7431.17 1340l-135.84 337.06h93.63l63.47-172.02 18.41-57.44c4.86 14.59 7.93 24.22 9.2 28.88 2.97 9.52 6.14 19.04 9.53 28.56l64.1 172.02h91.73L7511.47 1340zm339.59 168.54c0-33.44 7.94-59.05 23.8-76.82 15.88-17.77 35.44-26.66 58.72-26.66 23.27 0 42.8 8.89 58.56 26.66s23.64 43.59 23.64 77.44q0 49.515-23.64 76.17c-15.76 17.78-35.29 26.66-58.56 26.66-23.28 0-42.84-8.88-58.72-26.66-15.86-17.77-23.8-43.37-23.8-76.79m-91.4 4.75c0 29.62 7.29 58.29 21.9 86.01 14.59 27.72 35.28 48.88 62.04 63.47 26.77 14.61 56.65 21.91 89.66 21.91 51 0 92.78-16.56 125.37-49.67 32.58-33.12 48.88-74.96 48.88-125.53 0-50.99-16.46-93.26-49.36-126.79-32.9-33.54-74.31-50.31-124.24-50.31-30.9 0-60.37 6.99-88.4 20.95-28.04 13.97-49.36 34.44-63.95 61.42-14.61 26.97-21.9 59.82-21.9 98.54M8403.62 1340h-89.17v172.02c0 36.39-1.91 59.93-5.72 70.62-3.81 10.68-10 18.99-18.56 24.92-8.58 5.92-18.89 8.89-30.95 8.89-15.45 0-29.31-4.24-41.57-12.7-12.28-8.46-20.7-19.69-25.24-33.65-4.55-13.97-6.82-39.78-6.82-77.44V1340h-89.19v337.06h82.84v-49.51c29.4 38.09 66.44 57.13 111.08 57.13 19.68 0 37.66-3.55 53.96-10.64 16.29-7.09 28.61-16.13 36.97-27.13s14.18-23.49 17.46-37.46c3.27-13.96 4.91-33.95 4.91-59.98zm342.15 175.83c0-35.97 4.96-62 14.92-78.08 14.38-23.28 34.48-34.91 60.3-34.91 20.52 0 37.98 8.73 52.36 26.18 14.4 17.46 21.58 43.54 21.58 78.25 0 38.71-6.97 66.59-20.93 83.62-13.97 17.03-31.86 25.56-53.65 25.56-21.16 0-38.87-8.42-53.16-25.24-14.28-16.82-21.42-41.95-21.42-75.38M8983.8 1340h-82.83v49.51c-13.76-19.26-29.99-33.59-48.72-43.01-18.72-9.41-37.61-14.12-56.65-14.12-38.72 0-71.89 15.61-99.5 46.82-27.61 31.2-41.42 74.75-41.42 130.6 0 57.13 13.44 100.55 40.31 130.29 26.87 29.73 60.82 44.59 101.88 44.59 37.65 0 70.24-15.66 97.75-46.97v167.58h89.18zm288.19 197.41c-.63 25.81-7.29 45.44-19.99 58.88-12.69 13.43-28.14 20.16-46.34 20.16-19.47 0-35.55-7.1-48.25-21.27-12.69-14.18-18.93-33.44-18.72-57.77zm-5.07-90.13 88.86-14.92c-11.42-32.58-29.46-57.4-54.11-74.43-24.66-17.03-55.5-25.55-92.52-25.55-58.61 0-101.99 19.16-130.12 57.44-22.22 30.69-33.33 69.41-33.33 116.18 0 55.86 14.6 99.6 43.8 131.23s66.12 47.45 110.77 47.45c50.14 0 89.7-16.56 118.7-49.67 28.98-33.12 42.84-83.85 41.57-152.19H9137.1c.65-26.45 7.83-47.03 21.58-61.73 13.76-14.7 30.9-22.05 51.43-22.05 13.96 0 25.7 3.8 35.22 11.42 9.53 7.62 16.71 19.88 21.59 36.82M9518.6 1340h-89.18v337.06h82.83v-47.92c14.17 22.64 26.92 37.55 38.24 44.75 11.32 7.18 24.17 10.79 38.56 10.79 20.32 0 39.89-5.61 58.73-16.83l-27.62-77.75c-15.03 9.72-29 14.6-41.9 14.6-12.49 0-23.06-3.44-31.73-10.31-8.69-6.89-15.5-19.32-20.47-37.3-4.98-17.99-7.46-55.65-7.46-112.99zM3402.94 560.012v465.278h345v-78.708h-251.05v-103.16h233.59v-78.383h-233.59V638.398h259.94v-78.386zm654.77 0v50.457c-12.28-17.981-28.41-32.16-48.4-42.528-20-10.371-41.1-15.55-63.32-15.55-22.65 0-42.96 4.968-60.94 14.918-17.99 9.941-30.99 23.91-39.03 41.902-8.05 17.969-12.07 42.84-12.07 74.578V897.07h89.19V742.18c0-47.399 1.64-76.43 4.92-87.121 3.27-10.688 9.25-19.149 17.93-25.387 8.67-6.25 19.68-9.363 33.01-9.363 15.23 0 28.87 4.179 40.94 12.543 12.05 8.347 20.32 18.718 24.75 31.097 4.45 12.371 6.67 42.692 6.67 90.93V897.07h89.19V560.012zm260.56 0h-89.18V897.07h82.84v-47.922c14.17 22.633 26.92 37.551 38.24 44.743 11.32 7.191 24.17 10.789 38.56 10.789 20.32 0 39.89-5.598 58.72-16.821l-27.61-77.757c-15.03 9.73-29 14.597-41.9 14.597-12.49 0-23.06-3.429-31.74-10.308s-15.49-19.321-20.47-37.289c-4.98-17.993-7.46-55.661-7.46-112.993zm238.36 168.527c0-33.437 7.94-59.039 23.8-76.82 15.88-17.77 35.44-26.66 58.72-26.66 23.27 0 42.8 8.89 58.56 26.66q23.64 26.673 23.64 77.453 0 49.498-23.64 76.168c-15.76 17.769-35.29 26.66-58.56 26.66-23.28 0-42.84-8.891-58.72-26.66-15.86-17.781-23.8-43.371-23.8-76.801m-91.4 4.762c0 29.621 7.29 58.289 21.9 86q21.885 41.595 62.04 63.48c26.77 14.61 56.65 21.899 89.66 21.899 51 0 92.78-16.559 125.37-49.66 32.58-33.122 48.88-74.969 48.88-125.532 0-51-16.46-93.258-49.36-126.797-32.9-33.531-74.31-50.3-124.24-50.3-30.9 0-60.37 6.98-88.4 20.949-28.04 13.961-49.36 34.43-63.95 61.41-14.61 26.969-21.9 59.832-21.9 98.551m503.36.937c0-37.867 7.51-65.847 22.54-83.937 15.02-18.09 33.32-27.129 54.9-27.129 20.74 0 37.98 8.297 51.74 24.91 13.75 16.598 20.62 43.848 20.62 81.727 0 35.332-7.09 61.562-21.26 78.711-14.18 17.128-31.74 25.699-52.68 25.699-21.8 0-39.89-8.399-54.28-25.231-14.39-16.816-21.58-41.738-21.58-74.75m-88.23 162.832h83.15v-49.519c10.8 16.929 25.39 30.679 43.81 41.258 18.4 10.582 38.82 15.871 61.25 15.871q58.71 0 99.66-46.02c27.29-30.68 40.94-73.422 40.94-128.219 0-56.281-13.76-100.031-41.27-131.23-27.5-31.223-60.83-46.82-99.97-46.82-18.62 0-35.5 3.699-50.62 11.109-15.13 7.398-31.06 20.102-47.77 38.09V431.781h-89.18zm564.31 59.66v76.5h76.81v-76.5zm21.26-234.859c-11.43-3.812-29.51-8.359-54.27-13.641-24.75-5.289-40.95-10.48-48.56-15.558-11.63-8.25-17.45-18.723-17.45-31.41 0-12.492 4.64-23.293 13.96-32.391 9.31-9.09 21.15-13.641 35.55-13.641 16.07 0 31.41 5.282 46.02 15.872 10.78 8.039 17.87 17.878 21.26 29.507 2.33 7.621 3.49 22.11 3.49 43.493zM5308.2 956.73v76.5h76.48v-76.5zm38.39-162.5-80.92 14.602c9.09 32.578 24.75 56.699 46.97 72.367 22.22 15.653 55.22 23.481 99.02 23.481 39.78 0 69.4-4.7 88.87-14.121 19.46-9.418 33.16-21.368 41.1-35.868 7.93-14.492 11.9-41.089 11.9-79.82l-.95-104.101q0-44.433 4.29-65.54c2.85-14.07 8.19-29.148 16.02-45.218h-88.23c-2.33 5.91-5.19 14.699-8.57 26.34-1.48 5.289-2.54 8.769-3.17 10.468-15.23-14.808-31.53-25.922-48.88-33.32-17.35-7.41-35.86-11.109-55.54-11.109-34.71 0-62.05 9.41-82.04 28.238-20 18.84-30 42.641-30 71.422 0 19.039 4.55 36.019 13.65 50.929 9.09 14.93 21.84 26.352 38.24 34.282 16.4 7.937 40.04 14.867 70.94 20.789 41.68 7.828 70.57 15.129 86.64 21.898v8.883c0 17.148-4.23 29.367-12.7 36.656-8.45 7.313-24.43 10.961-47.92 10.961-15.86 0-28.25-3.117-37.13-9.359-8.89-6.25-16.08-17.199-21.59-32.86m294.87-234.218V897.07h89.18V560.012Zm0 382.758v82.52h89.18v-82.52zm149.16-286.59 89.5 13.64c3.81-17.351 11.53-30.531 23.17-39.511 11.63-9 27.93-13.489 48.87-13.489q34.605-.002 52.05 12.7c7.83 5.921 11.75 13.851 11.75 23.8 0 6.762-2.12 12.371-6.35 16.821-4.44 4.23-14.39 8.14-29.83 11.738-71.95 15.871-117.54 30.359-136.8 43.48-26.66 18.2-39.98 43.481-39.98 75.86 0 29.203 11.52 53.742 34.59 73.633 23.06 19.878 58.82 29.828 107.28 29.828 46.12 0 80.4-7.508 102.83-22.532 22.42-15.019 37.87-37.238 46.34-66.66l-84.11-15.539c-3.6 13.11-10.43 23.16-20.48 30.153-10.04 6.98-24.38 10.468-42.99 10.468-23.5 0-40.32-3.281-50.47-9.84-6.78-4.648-10.16-10.691-10.16-18.089 0-6.352 2.96-11.743 8.89-16.192q12.06-8.879 83.31-25.07c47.5-10.789 80.66-24.008 99.5-39.668 18.61-15.859 27.93-37.981 27.93-66.332 0-30.899-12.91-57.438-38.72-79.668-25.82-22.211-64-33.32-114.58-33.32-45.91 0-82.26 9.308-109.01 27.929q-40.155 27.917-52.53 75.86m686.81 141.23-87.91-15.871c-2.97 17.563-9.67 30.793-20.15 39.68-10.47 8.883-24.08 13.32-40.78 13.32-22.22 0-39.95-7.668-53.17-23.008s-19.83-41-19.83-76.961c0-39.988 6.72-68.238 20.15-84.738s31.47-24.773 54.12-24.773q25.38.002 41.58 14.453c10.78 9.629 18.4 26.179 22.85 49.679l87.6-14.929c-9.1-40.203-26.57-70.563-52.38-91.09-25.82-20.524-60.41-30.781-103.78-30.781-49.3 0-88.61 15.55-117.91 46.66-29.3 31.09-43.96 74.148-43.96 129.168 0 55.64 14.71 98.961 44.12 129.972 29.4 31 69.19 46.489 119.34 46.489 41.04 0 73.68-8.828 97.91-26.5 24.22-17.668 41.63-44.59 52.2-80.77m156.48 227.88V854.219q43.155 50.46 103.14 50.461c20.52 0 39.05-3.801 55.55-11.418 16.5-7.621 28.93-17.364 37.28-29.203 8.36-11.86 14.08-24.969 17.14-39.36 3.07-14.39 4.6-36.711 4.6-66.961V560.012h-89.18v178.039c0 35.34-1.7 57.781-5.07 67.289-3.39 9.531-9.37 17.09-17.93 22.691q-12.87 8.416-32.22 8.418c-14.82 0-28.04-3.597-39.68-10.801-11.63-7.187-20.15-18.039-25.55-32.527-5.39-14.492-8.08-35.922-8.08-64.269v-168.84h-89.19v465.278zm508.44-267.868c-.64 25.808-7.3 45.437-19.99 58.867-12.7 13.43-28.15 20.16-46.35 20.16-19.47 0-35.55-7.097-48.24-21.269-12.7-14.18-18.94-33.442-18.73-57.758zm-5.08-90.141 88.86-14.91c-11.42-32.59-29.46-57.402-54.11-74.43-24.65-17.043-55.49-25.55-92.52-25.55-58.61 0-101.99 19.148-130.12 57.441-22.22 30.68-33.33 69.398-33.33 116.168 0 55.859 14.61 99.602 43.81 131.23 29.19 31.629 66.11 47.45 110.76 47.45 50.14 0 89.7-16.559 118.7-49.66 28.98-33.122 42.84-83.848 41.57-152.188h-223.44c.65-26.461 7.84-47.031 21.59-61.73q20.625-22.065 51.42-22.063c13.97 0 25.7 3.813 35.23 11.422 9.52 7.621 16.7 19.891 21.58 36.82m472.9-107.269h-89.18v172.019c0 36.379-1.91 59.93-5.71 70.61-3.81 10.691-10 19-18.57 24.918-8.57 5.921-18.89 8.89-30.95 8.89-15.45 0-29.3-4.238-41.57-12.687-12.27-8.473-20.69-19.692-25.23-33.66-4.55-13.961-6.83-39.77-6.83-77.442V560.012h-89.19V897.07h82.84v-49.519c29.41 38.09 66.44 57.129 111.09 57.129 19.67 0 37.65-3.539 53.95-10.629 16.29-7.09 28.62-16.129 36.97-27.129 8.36-11.012 14.18-23.5 17.47-37.461 3.27-13.973 4.91-33.961 4.91-59.981zm271.05 465.278h93.95V773.289c0-39.988 1.15-65.91 3.48-77.758 4.02-19.043 13.6-34.332 28.72-45.871 15.13-11.531 35.82-17.289 62.06-17.289 26.66 0 46.75 5.449 60.3 16.348 13.53 10.89 21.69 24.269 24.44 40.14s4.12 42.223 4.12 79.039v257.392h93.95V780.898q0-83.79-7.62-118.367c-5.08-23.07-14.44-42.543-28.08-58.402-13.66-15.879-31.9-28.52-54.75-37.93-22.85-9.418-52.7-14.117-89.51-14.117-44.44 0-78.13 5.117-101.09 15.387q-34.44 15.376-54.42 39.992c-13.34 16.391-22.12 33.578-26.35 51.57-6.14 26.66-9.2 66.008-9.2 118.071zm776-465.278h-89.18v172.019c0 36.379-1.91 59.93-5.71 70.61-3.81 10.691-10 19-18.57 24.918-8.57 5.921-18.89 8.89-30.95 8.89-15.44 0-29.3-4.238-41.57-12.687-12.27-8.473-20.69-19.692-25.23-33.66-4.55-13.961-6.83-39.77-6.83-77.442V560.012h-89.19V897.07h82.84v-49.519c29.41 38.09 66.44 57.129 111.09 57.129 19.68 0 37.65-3.539 53.95-10.629 16.29-7.09 28.62-16.129 36.98-27.129 8.35-11.012 14.18-23.5 17.46-37.461 3.27-13.973 4.91-33.961 4.91-59.981zm90.46 0V897.07h89.18V560.012Zm0 382.758v82.52h89.18v-82.52zm251.36-214.231c0-33.437 7.94-59.039 23.8-76.82 15.88-17.77 35.44-26.66 58.72-26.66s42.8 8.89 58.56 26.66q23.64 26.673 23.64 77.453 0 49.498-23.64 76.168c-15.76 17.769-35.28 26.66-58.56 26.66s-42.84-8.891-58.72-26.66c-15.86-17.781-23.8-43.371-23.8-76.801m-91.4 4.762c0 29.621 7.29 58.289 21.9 86 14.59 27.73 35.28 48.89 62.04 63.48 26.77 14.61 56.65 21.899 89.66 21.899 51 0 92.79-16.559 125.37-49.66 32.58-33.122 48.88-74.969 48.88-125.532 0-51-16.45-93.258-49.36-126.797-32.9-33.531-74.31-50.3-124.24-50.3-30.9 0-60.36 6.98-88.4 20.949-28.04 13.961-49.36 34.43-63.95 61.41-14.61 26.969-21.9 59.832-21.9 98.551m724.26-173.289h-89.18v172.019c0 36.379-1.91 59.93-5.72 70.61-3.8 10.691-10 19-18.56 24.918-8.57 5.921-18.89 8.89-30.95 8.89-15.45 0-29.3-4.238-41.57-12.687q-18.42-12.709-25.23-33.66c-4.56-13.961-6.83-39.77-6.83-77.442V560.012h-89.19V897.07h82.84v-49.519c29.41 38.09 66.44 57.129 111.09 57.129 19.67 0 37.65-3.539 53.95-10.629 16.29-7.09 28.61-16.129 36.97-27.129q12.54-16.519 17.46-37.461c3.28-13.973 4.92-33.961 4.92-59.981z" style="fill:#fff;fill-opacity:1;fill-rule:nonzero;stroke:none" transform="matrix(.13333 0 0 -.13333 0 293.907)"/></svg>