<svg xmlns="http://www.w3.org/2000/svg" width="1318.08" height="293.907" viewBox="0 0 1318.08 293.907"><path d="M100.293 101.059H3049.74V2103.9H100.293z" style="fill:#fff;fill-opacity:1;fill-rule:nonzero;stroke:none" transform="matrix(.13333 0 0 -.13333 0 293.907)"/><path d="M157.012 158.27H2993.03v1890.7H157.012z" style="fill:#2a3c93;fill-opacity:1;fill-rule:nonzero;stroke:none" transform="matrix(.13333 0 0 -.13333 0 293.907)"/><path d="m1514.59 1637.02 59.84 43.67 59.85-43.67-22.78 70.63 60.79 43.67h-74.93l-22.93 71.48-22.93-71.56-74.88.08 60.74-43.67zm-309.69-83.2 59.84 43.67 59.81-43.67-22.74 70.63 60.75 43.67h-74.93l-22.92 71.56-22.93-71.64-74.89.08 60.74-43.67zm-166.76-41.25-22.93-71.64-74.874.08 60.734-43.67-22.765-70.63 59.835 43.67 59.84-43.67-22.77 70.63 60.74 43.67h-74.88zm-83.117-451.49 59.807-43.67-22.736 70.62 60.736 43.68h-74.877l-22.93 71.56-22.929-71.72-74.918.16 60.777-43.68-22.769-70.62zm106.047-239.6-22.93 71.559-22.93-71.641-74.874.082 60.734-43.671-22.765-70.629 59.835 43.75 59.84-43.75-22.77 70.629 60.74 43.671zm227.03-227.031-22.93 71.481-22.89-71.559-74.92.078 60.74-43.668-22.73-70.633 59.84 43.672 59.8-43.672-22.73 70.633 60.74 43.668zm309.3-82.269-22.93 71.558-22.89-71.636-74.92.078 60.74-43.668-22.73-70.633 59.84 43.672 59.8-43.672-22.77 70.633 60.78 43.668zm309.3 82.269-22.89 71.481-22.97-71.559-74.84.078 60.7-43.668-22.73-70.633 59.84 43.672 59.84-43.672-22.81 70.633 60.78 43.668zm227.11 227.031-22.97 71.559-22.97-71.641-74.84.082 60.78-43.671L2051 707.18l59.84 43.75 59.84-43.75-22.81 70.629 60.78 43.671zm157.11 311.09H2216l-22.97 71.56-22.89-71.64-74.92.08 60.78-43.67-22.74-70.63 59.77 43.75 59.84-43.75-22.73 70.63zm-239.93 195.08 59.84 43.67 59.85-43.67-22.81 70.63 60.78 43.59h-74.85l-22.97 71.56-22.96-71.64-74.85.08 60.78-43.59zm-166.32 411.95-22.89-71.64-74.92.16 60.7-43.75-22.73-70.63 59.92 43.75 59.76-43.75-22.73 70.63 60.78 43.75h-75z" style="fill:#fbca07;fill-opacity:1;fill-rule:nonzero;stroke:none" transform="matrix(.13333 0 0 -.13333 0 293.907)"/><text xml:space="preserve" transform="translate(447.383 115.603)scale(1.33333)"><tspan x="0" y="0" dx="0 0.01140139 -0.01088867 0 0 -0.01088867 -0.0099121099 -0.0099121099 0.0094238296 -0.01088867 -0.01040039 -0.01088867" style="font-variant:normal;font-weight:700;font-size:65px;font-family:Arial;writing-mode:lr-tb;fill:#fff;fill-opacity:1;fill-rule:nonzero;stroke:none">Co-funded by</tspan><tspan x="0" y="78" dx="0 0 -0.01088867 0.01040039 -0.01142577 0 -0.01088867 0.01088867 -0.01088867 -0.01088867 0.01040039 0.01040039 -0.01088867 -0.01040039 0.01040039 -0.01083985 -0.0104492 -0.01093748" style="font-variant:normal;font-weight:700;font-size:65px;font-family:Arial;writing-mode:lr-tb;fill:#fff;fill-opacity:1;fill-rule:nonzero;stroke:none">the European Union</tspan></text></svg>