<svg xmlns="http://www.w3.org/2000/svg" width="1215.44" height="293.907" viewBox="0 0 1215.44 293.907"><path d="M100.293 101.059H3049.74V2103.9H100.293z" style="fill:#fff;fill-opacity:1;fill-rule:nonzero;stroke:none" transform="matrix(.13333 0 0 -.13333 0 293.907)"/><path d="M157.012 158.27H2993.03v1890.7H157.012z" style="fill:#2a3c93;fill-opacity:1;fill-rule:nonzero;stroke:none" transform="matrix(.13333 0 0 -.13333 0 293.907)"/><path d="m1514.59 1637.02 59.84 43.67 59.85-43.67-22.78 70.63 60.79 43.67h-74.93l-22.93 71.48-22.93-71.56-74.88.08 60.74-43.67zm-309.69-83.2 59.84 43.67 59.81-43.67-22.74 70.63 60.75 43.67h-74.93l-22.92 71.56-22.93-71.64-74.89.08 60.74-43.67zm-166.76-41.25-22.93-71.64-74.874.08 60.734-43.67-22.765-70.63 59.835 43.67 59.84-43.67-22.77 70.63 60.74 43.67h-74.88zm-83.117-451.49 59.807-43.67-22.736 70.62 60.736 43.68h-74.877l-22.93 71.56-22.929-71.72-74.918.16 60.777-43.68-22.769-70.62zm106.047-239.6-22.93 71.559-22.93-71.641-74.874.082 60.734-43.671-22.765-70.629 59.835 43.75 59.84-43.75-22.77 70.629 60.74 43.671zm227.03-227.031-22.93 71.481-22.89-71.559-74.92.078 60.74-43.668-22.73-70.633 59.84 43.672 59.8-43.672-22.73 70.633 60.74 43.668zm309.3-82.269-22.93 71.558-22.89-71.636-74.92.078 60.74-43.668-22.73-70.633 59.84 43.672 59.8-43.672-22.77 70.633 60.78 43.668zm309.3 82.269-22.89 71.481-22.97-71.559-74.84.078 60.7-43.668-22.73-70.633 59.84 43.672 59.84-43.672-22.81 70.633 60.78 43.668zm227.11 227.031-22.97 71.559-22.97-71.641-74.84.082 60.78-43.671L2051 707.18l59.84 43.75 59.84-43.75-22.81 70.629 60.78 43.671zm157.11 311.09H2216l-22.97 71.56-22.89-71.64-74.92.08 60.78-43.67-22.74-70.63 59.77 43.75 59.84-43.75-22.73 70.63zm-239.93 195.08 59.84 43.67 59.85-43.67-22.81 70.63 60.78 43.59h-74.85l-22.97 71.56-22.96-71.64-74.85.08 60.78-43.59zm-166.32 411.95-22.89-71.64-74.92.16 60.7-43.75-22.73-70.63 59.92 43.75 59.76-43.75-22.73 70.63 60.78 43.75h-75z" style="fill:#fbca07;fill-opacity:1;fill-rule:nonzero;stroke:none" transform="matrix(.13333 0 0 -.13333 0 293.907)"/><path d="m3702.04 1511.02 91.09-28.89c-13.97-50.78-37.19-88.5-69.67-113.15-32.48-24.66-73.68-36.97-123.62-36.97-61.78 0-112.56 21.1-152.35 63.31-39.77 42.22-59.67 99.92-59.67 173.14 0 77.44 20 137.58 59.99 180.43s92.57 64.27 157.75 64.27q85.365 0 138.69-50.46c21.15-19.9 37.02-48.46 47.61-85.7l-93-22.21c-5.5 24.12-16.97 43.16-34.43 57.12-17.46 13.97-38.68 20.95-63.64 20.95-34.49 0-62.47-12.37-83.94-37.14-21.49-24.74-32.22-64.85-32.22-120.28 0-58.83 10.58-100.73 31.74-125.69 21.15-24.96 48.66-37.45 82.52-37.45 24.96 0 46.44 7.93 64.42 23.81q26.985 23.79 38.73 74.91m241.85-2.54c0-33.44 7.94-59.05 23.8-76.82 15.88-17.77 35.44-26.66 58.72-26.66 23.27 0 42.79 8.89 58.55 26.66s23.65 43.59 23.65 77.44c0 33.01-7.89 58.4-23.65 76.17-15.76 17.78-35.28 26.66-58.55 26.66-23.28 0-42.84-8.88-58.72-26.66-15.86-17.77-23.8-43.37-23.8-76.79m-91.41 4.75c0 29.62 7.3 58.29 21.91 86.01 14.59 27.72 35.27 48.89 62.04 63.47 26.76 14.61 56.65 21.91 89.66 21.91 50.99 0 92.78-16.57 125.37-49.67 32.57-33.11 48.87-74.96 48.87-125.53 0-50.99-16.45-93.26-49.35-126.79-32.9-33.54-74.32-50.31-124.25-50.31-30.9 0-60.36 6.98-88.4 20.95-28.04 13.96-49.35 34.43-63.94 61.42-14.61 26.97-21.91 59.82-21.91 98.54m631.27-173.29V1677h89.18v-337.06zm0 382.76v82.52h89.18v-82.52Zm-250.41-45.7h49.51v25.39c0 28.35 3.01 49.51 9.05 63.48 6.02 13.96 17.13 25.33 33.32 34.12q24.285 13.17 61.41 13.17c25.39 0 50.26-3.8 74.58-11.42l-12.05-62.21c-14.18 3.38-27.83 5.08-40.95 5.08-12.91 0-22.16-3.02-27.77-9.06-5.6-6.02-8.41-17.6-8.41-34.75V1677h66.65v-70.14h-66.65v-266.92h-89.18v266.92h-49.51zm740.44-337.06h-89.18v172.02c0 36.39-1.9 59.93-5.71 70.62-3.81 10.68-10 18.99-18.57 24.92-8.57 5.92-18.88 8.89-30.94 8.89-15.45 0-29.31-4.24-41.58-12.7-12.27-8.47-20.69-19.69-25.23-33.65-4.55-13.97-6.83-39.78-6.83-77.44v-152.66h-89.19V1677h82.85v-49.51c29.4 38.08 66.43 57.13 111.08 57.13 19.68 0 37.66-3.55 53.96-10.64 16.28-7.09 28.61-16.13 36.97-27.12q12.54-16.515 17.46-37.47c3.27-13.96 4.91-33.95 4.91-59.98zm276.45 161.86c-11.43-3.8-29.52-8.35-54.27-13.64-24.76-5.29-40.95-10.48-48.57-15.55-11.63-8.25-17.45-18.72-17.45-31.42 0-12.49 4.65-23.28 13.97-32.38 9.3-9.1 21.15-13.65 35.54-13.65 16.08 0 31.42 5.29 46.03 15.88 10.78 8.03 17.87 17.87 21.26 29.51 2.32 7.61 3.49 22.11 3.49 43.48zm-119.34 72.37-80.93 14.6c9.09 32.58 24.76 56.7 46.98 72.36 22.21 15.66 55.22 23.49 99.02 23.49 39.77 0 69.39-4.71 88.87-14.12 19.46-9.43 33.16-21.38 41.1-35.87 7.93-14.49 11.89-41.09 11.89-79.83l-.94-104.1c0-29.62 1.42-51.46 4.28-65.54 2.85-14.07 8.2-29.14 16.03-45.22h-88.23c-2.34 5.92-5.19 14.71-8.58 26.35-1.47 5.28-2.54 8.77-3.16 10.47-15.24-14.82-31.54-25.92-48.89-33.32-17.34-7.42-35.86-11.12-55.54-11.12-34.7 0-62.05 9.42-82.04 28.25-20 18.83-30 42.63-30 71.41 0 19.04 4.55 36.03 13.66 50.94 9.09 14.92 21.84 26.35 38.24 34.28 16.39 7.94 40.04 14.86 70.94 20.79 41.67 7.82 70.56 15.12 86.64 21.89v8.89c0 17.15-4.23 29.36-12.7 36.66-8.46 7.3-24.43 10.96-47.92 10.96-15.87 0-28.25-3.13-37.14-9.37-8.88-6.25-16.07-17.2-21.58-32.85m601.45-234.23h-89.18v172.02c0 36.39-1.91 59.93-5.72 70.62-3.81 10.68-10 18.99-18.56 24.92-8.58 5.92-18.89 8.89-30.95 8.89-15.45 0-29.31-4.24-41.57-12.7-12.28-8.47-20.69-19.69-25.24-33.65-4.55-13.97-6.82-39.78-6.82-77.44v-152.66h-89.19V1677h82.84v-49.51c29.4 38.08 66.44 57.13 111.08 57.13 19.68 0 37.66-3.55 53.96-10.64 16.29-7.09 28.61-16.13 36.97-27.12q12.54-16.515 17.46-37.47c3.27-13.96 4.92-33.95 4.92-59.98zm384.34 237.4-87.91-15.87c-2.97 17.56-9.68 30.8-20.16 39.68-10.46 8.89-24.07 13.32-40.78 13.32-22.21 0-39.94-7.67-53.16-23.01s-19.83-40.99-19.83-76.96c0-39.99 6.71-68.23 20.15-84.73 13.43-16.51 31.47-24.77 54.11-24.77 16.93 0 30.78 4.81 41.58 14.44 10.79 9.63 18.4 26.19 22.86 49.68l87.59-14.92c-9.1-40.21-26.56-70.57-52.37-91.09-25.82-20.52-60.41-30.79-103.78-30.79-49.3 0-88.61 15.55-117.91 46.66-29.31 31.1-43.96 74.15-43.96 129.17 0 55.65 14.7 98.97 44.12 129.98 29.4 30.99 69.19 46.49 119.33 46.49 41.05 0 73.69-8.84 97.91-26.51 24.23-17.66 41.63-44.59 52.21-80.77m67.61-237.4V1677h89.18v-337.06zm0 382.76v82.52h89.18v-82.52zm366.57-220.9c-11.43-3.8-29.51-8.35-54.27-13.64-24.75-5.29-40.94-10.48-48.56-15.55-11.63-8.25-17.45-18.72-17.45-31.42 0-12.49 4.65-23.28 13.96-32.38s21.15-13.65 35.55-13.65c16.07 0 31.42 5.29 46.02 15.88 10.79 8.03 17.88 17.87 21.26 29.51 2.33 7.61 3.49 22.11 3.49 43.48zm-119.34 72.37-80.92 14.6c9.09 32.58 24.75 56.7 46.97 72.36s55.22 23.49 99.02 23.49c39.78 0 69.4-4.71 88.87-14.12 19.46-9.43 33.16-21.38 41.1-35.87 7.93-14.49 11.9-41.09 11.9-79.83l-.95-104.1c0-29.62 1.43-51.46 4.29-65.54 2.85-14.07 8.19-29.14 16.02-45.22h-88.23c-2.33 5.92-5.18 14.71-8.57 26.35-1.48 5.28-2.54 8.77-3.17 10.47-15.23-14.82-31.53-25.92-48.88-33.32-17.35-7.42-35.86-11.12-55.54-11.12-34.71 0-62.05 9.42-82.04 28.25-20 18.83-30 42.63-30 71.41 0 19.04 4.55 36.03 13.65 50.94 9.09 14.92 21.85 26.35 38.24 34.28 16.4 7.94 40.04 14.86 70.94 20.79 41.68 7.82 70.57 15.12 86.64 21.89v8.89c0 17.15-4.23 29.36-12.69 36.66s-24.44 10.96-47.92 10.96c-15.87 0-28.26-3.13-37.14-9.37-8.89-6.25-16.08-17.2-21.59-32.85m365.95-58.4c0-35.98 4.96-62 14.91-78.07 14.39-23.29 34.49-34.92 60.31-34.92 20.51 0 37.98 8.73 52.36 26.18 14.39 17.47 21.58 43.54 21.58 78.25 0 38.71-6.97 66.59-20.94 83.62-13.96 17.03-31.85 25.56-53.64 25.56-21.16 0-38.87-8.42-53.16-25.24-14.28-16.83-21.42-41.95-21.42-75.38m238.03-175.83h-82.83v49.51c-13.76-19.25-29.99-33.59-48.72-43-18.72-9.42-37.61-14.13-56.65-14.13-38.72 0-71.89 15.61-99.51 46.82-27.6 31.2-41.41 74.75-41.41 130.61 0 57.13 13.44 100.54 40.31 130.28 26.87 29.72 60.82 44.59 101.88 44.59 37.65 0 70.24-15.67 97.75-46.98v167.58h89.18zm158.7 168.54c0-33.44 7.94-59.05 23.8-76.82 15.88-17.77 35.44-26.66 58.72-26.66 23.27 0 42.79 8.89 58.55 26.66 15.77 17.77 23.65 43.59 23.65 77.44 0 33.01-7.88 58.4-23.65 76.17-15.76 17.78-35.28 26.66-58.55 26.66-23.28 0-42.84-8.88-58.72-26.66-15.86-17.77-23.8-43.37-23.8-76.79m-91.41 4.75c0 29.62 7.3 58.29 21.91 86.01 14.59 27.72 35.27 48.89 62.04 63.47 26.77 14.61 56.65 21.91 89.66 21.91 50.99 0 92.78-16.57 125.37-49.67 32.58-33.11 48.88-74.96 48.88-125.53 0-50.99-16.46-93.26-49.36-126.79-32.9-33.54-74.32-50.31-124.25-50.31-30.9 0-60.36 6.98-88.4 20.95-28.03 13.96-49.35 34.43-63.94 61.42-14.61 26.97-21.91 59.82-21.91 98.54m683.96.95c0-37.87 7.51-65.85 22.54-83.95q22.53-27.12 54.9-27.12c20.74 0 37.98 8.3 51.74 24.91 13.75 16.6 20.62 43.84 20.62 81.73 0 35.33-7.09 61.56-21.26 78.71-14.18 17.13-31.73 25.7-52.68 25.7-21.8 0-39.88-8.41-54.28-25.23-14.38-16.82-21.58-41.74-21.58-74.75M7698.53 1677h83.14v-49.51c10.8 16.92 25.39 30.67 43.81 41.26 18.4 10.57 38.82 15.87 61.25 15.87 39.14 0 72.36-15.34 99.66-46.03 27.29-30.67 40.95-73.41 40.95-128.22 0-56.28-13.76-100.03-41.27-131.23-27.5-31.21-60.83-46.82-99.98-46.82-18.62 0-35.49 3.7-50.62 11.12-15.13 7.4-31.05 20.1-47.76 38.08v-169.8h-89.18zm470.36-168.52c0-33.44 7.94-59.05 23.8-76.82 15.88-17.77 35.44-26.66 58.72-26.66 23.27 0 42.79 8.89 58.55 26.66s23.64 43.59 23.64 77.44q0 49.515-23.64 76.17c-15.76 17.78-35.28 26.66-58.55 26.66-23.28 0-42.84-8.88-58.72-26.66-15.86-17.77-23.8-43.37-23.8-76.79m-91.41 4.75c0 29.62 7.3 58.29 21.91 86.01 14.59 27.72 35.27 48.89 62.04 63.47 26.76 14.61 56.65 21.91 89.66 21.91 50.99 0 92.78-16.57 125.37-49.67 32.57-33.11 48.87-74.96 48.87-125.53 0-50.99-16.45-93.26-49.35-126.79-32.9-33.54-74.32-50.31-124.25-50.31-30.9 0-60.36 6.98-88.4 20.95-28.04 13.96-49.35 34.43-63.94 61.42-14.61 26.97-21.91 59.82-21.91 98.54m503.05-173.29h-89.18V1677h82.83v-47.92c14.17 22.64 26.92 37.55 38.24 44.75 11.32 7.19 24.17 10.79 38.57 10.79 20.31 0 39.88-5.61 58.72-16.83l-27.62-77.75c-15.03 9.73-28.99 14.6-41.89 14.6q-18.735 0-31.74-10.32c-8.68-6.88-15.5-19.31-20.47-37.29-4.98-17.99-7.46-55.65-7.46-112.99zM3403.7 559.949v465.281h89.18V559.949zm366.57 161.86c-11.43-3.809-29.52-8.36-54.27-13.637-24.76-5.301-40.95-10.481-48.57-15.563-11.63-8.25-17.45-18.718-17.45-31.41 0-12.5 4.65-23.289 13.97-32.39 9.3-9.09 21.15-13.637 35.54-13.637 16.08 0 31.42 5.277 46.03 15.867 10.78 8.043 17.87 17.883 21.26 29.512 2.32 7.621 3.49 22.109 3.49 43.488zm-119.34 72.363L3570 808.77c9.09 32.582 24.76 56.699 46.97 72.371 22.22 15.648 55.23 23.48 99.03 23.48 39.77 0 69.39-4.699 88.86-14.121 19.47-9.418 33.17-21.379 41.11-35.871 7.93-14.488 11.89-41.09 11.89-79.82l-.94-104.098c0-29.621 1.42-51.473 4.28-65.539 2.85-14.07 8.2-29.152 16.03-45.223H3789c-2.34 5.91-5.19 14.699-8.58 26.34-1.47 5.293-2.54 8.77-3.16 10.473-15.24-14.813-31.54-25.922-48.89-33.321-17.34-7.41-35.86-11.109-55.54-11.109-34.7 0-62.05 9.406-82.04 28.238-20 18.84-30 42.641-30 71.418 0 19.043 4.55 36.024 13.65 50.934 9.1 14.93 21.85 26.348 38.25 34.277 16.39 7.942 40.04 14.86 70.93 20.789 41.68 7.821 70.57 15.133 86.65 21.903v8.879c0 17.152-4.23 29.371-12.7 36.66-8.46 7.308-24.43 10.961-47.92 10.961q-23.805 0-37.14-9.36c-8.89-6.25-16.07-17.199-21.58-32.859m475.45 231.058h93.94v-252c0-39.992 1.16-65.91 3.49-77.761 4.01-19.039 13.59-34.328 28.72-45.867 15.13-11.532 35.81-17.293 62.05-17.293 26.66 0 46.76 5.453 60.3 16.351 13.54 10.879 21.69 24.27 24.45 40.141 2.74 15.871 4.12 42.219 4.12 79.039v257.39h93.94V780.84c0-55.86-2.53-95.32-7.61-118.379-5.08-23.063-14.45-42.531-28.09-58.391-13.65-15.879-31.89-28.519-54.75-37.929-22.85-9.422-52.69-14.121-89.51-14.121-44.43 0-78.12 5.121-101.08 15.39q-34.44 15.374-54.42 39.988c-13.34 16.391-22.12 33.582-26.35 51.571-6.14 26.66-9.2 66.011-9.2 118.07zm775.99-465.281h-89.18v172.02c0 36.383-1.9 59.929-5.71 70.613-3.81 10.688-10 19-18.56 24.918-8.58 5.922-18.89 8.891-30.95 8.891-15.45 0-29.31-4.243-41.57-12.692-12.28-8.469-20.7-19.687-25.24-33.66-4.55-13.957-6.82-39.769-6.82-77.437V559.949h-89.19v337.063h82.84v-49.524c29.4 38.094 66.44 57.133 111.08 57.133 19.68 0 37.66-3.539 53.96-10.633 16.29-7.09 28.61-16.129 36.97-27.129 8.36-11.007 14.18-23.5 17.46-37.461 3.27-13.968 4.91-33.957 4.91-59.976zm90.47 0v337.063h89.18V559.949Zm0 382.762v82.519h89.18v-82.519zm288.81-4.441 43.8 94.9h99.97l-87.27-94.9zm-37.45-209.79c0-33.441 7.94-59.039 23.8-76.82 15.88-17.769 35.44-26.66 58.72-26.66 23.27 0 42.79 8.891 58.55 26.66 15.77 17.781 23.65 43.602 23.65 77.449 0 33-7.88 58.391-23.65 76.172-15.76 17.77-35.28 26.66-58.55 26.66-23.28 0-42.84-8.89-58.72-26.66-15.86-17.781-23.8-43.371-23.8-76.801m-91.41 4.758c0 29.621 7.3 58.293 21.91 86q21.885 41.596 62.04 63.481c26.77 14.613 56.65 21.902 89.66 21.902 50.99 0 92.78-16.562 125.37-49.672 32.58-33.109 48.88-74.961 48.88-125.519 0-51-16.46-93.258-49.36-126.801-32.9-33.527-74.32-50.297-124.25-50.297-30.9 0-60.36 6.977-88.4 20.949-28.03 13.957-49.35 34.43-63.94 61.41-14.61 26.969-21.91 59.829-21.91 98.547m724.27-173.289h-89.18v172.02c0 36.383-1.9 59.929-5.71 70.613-3.81 10.688-10 19-18.57 24.918-8.57 5.922-18.88 8.891-30.94 8.891-15.45 0-29.31-4.243-41.57-12.692-12.28-8.469-20.7-19.687-25.24-33.66-4.55-13.957-6.83-39.769-6.83-77.437V559.949h-89.18v337.063h82.84v-49.524c29.4 38.094 66.43 57.133 111.08 57.133 19.68 0 37.66-3.539 53.96-10.633 16.29-7.09 28.61-16.129 36.97-27.129 8.36-11.007 14.18-23.5 17.46-37.461 3.27-13.968 4.91-33.957 4.91-59.976zm271.68 0v465.281h345v-78.71h-251.05V843.359h233.59v-78.39h-233.59V638.34h259.94v-78.391zm654.76 0v50.461c-12.28-17.98-28.41-32.16-48.4-42.539-20-10.359-41.1-15.539-63.32-15.539-22.65 0-42.96 4.969-60.94 14.918-17.99 9.941-31 23.91-39.03 41.891-8.05 17.98-12.07 42.847-12.07 74.578v213.293h89.19V742.121c0-47.402 1.64-76.43 4.92-87.121 3.27-10.691 9.25-19.148 17.93-25.391 8.67-6.25 19.68-9.359 33.01-9.359 15.23 0 28.87 4.18 40.94 12.539 12.05 8.352 20.32 18.723 24.75 31.102 4.45 12.371 6.67 42.691 6.67 90.929v142.192h89.19V559.949zm260.57 0h-89.18v337.063h82.84V849.09c14.17 22.629 26.92 37.539 38.24 44.742 11.32 7.188 24.17 10.789 38.56 10.789 20.31 0 39.89-5.601 58.72-16.82l-27.61-77.762c-15.03 9.731-29 14.602-41.9 14.602-12.49 0-23.06-3.442-31.74-10.309-8.68-6.883-15.49-19.32-20.47-37.293-4.98-17.988-7.46-55.66-7.46-112.988zm238.35 168.531c0-33.441 7.94-59.039 23.8-76.82 15.88-17.769 35.44-26.66 58.72-26.66 23.27 0 42.8 8.891 58.56 26.66 15.76 17.781 23.64 43.602 23.64 77.449q0 49.5-23.64 76.172c-15.76 17.77-35.29 26.66-58.56 26.66-23.28 0-42.84-8.89-58.72-26.66-15.86-17.781-23.8-43.371-23.8-76.801m-91.4 4.758c0 29.621 7.29 58.293 21.9 86q21.885 41.596 62.04 63.481c26.77 14.613 56.65 21.902 89.66 21.902 51 0 92.78-16.562 125.37-49.672 32.58-33.109 48.88-74.961 48.88-125.519 0-51-16.46-93.258-49.36-126.801-32.9-33.527-74.31-50.297-124.25-50.297-30.89 0-60.36 6.977-88.39 20.949-28.04 13.957-49.36 34.43-63.95 61.41-14.61 26.969-21.9 59.829-21.9 98.547m503.37.942c0-37.871 7.51-65.848 22.54-83.942 15.01-18.09 33.32-27.129 54.9-27.129 20.74 0 37.98 8.301 51.74 24.911 13.75 16.601 20.62 43.851 20.62 81.73 0 35.332-7.09 61.559-21.26 78.711-14.18 17.129-31.74 25.699-52.68 25.699-21.8 0-39.89-8.398-54.28-25.23-14.39-16.821-21.58-41.739-21.58-74.75m-88.23 162.832h83.15v-49.524c10.8 16.934 25.39 30.684 43.81 41.262 18.39 10.582 38.81 15.871 61.25 15.871 39.14 0 72.36-15.34 99.65-46.019q40.95-46.019 40.95-128.231c0-56.269-13.76-100.019-41.27-131.23-27.5-31.211-60.83-46.809-99.97-46.809-18.62 0-35.5 3.699-50.62 11.109-15.13 7.399-31.06 20.098-47.77 38.09V431.719h-89.18zm599.86-139.653c-.64 25.813-7.3 45.442-19.99 58.871-12.7 13.43-28.15 20.161-46.35 20.161-19.46 0-35.55-7.102-48.24-21.27-12.7-14.18-18.94-33.441-18.72-57.762zm-5.08-90.14 88.87-14.91c-11.43-32.59-29.47-57.399-54.12-74.438-24.65-17.031-55.49-25.539-92.51-25.539-58.62 0-102 19.148-130.13 57.438q-33.33 46.018-33.33 116.171c0 55.86 14.61 99.598 43.81 131.231 29.2 31.629 66.11 47.449 110.76 47.449 50.14 0 89.71-16.562 118.7-49.672 28.98-33.109 42.84-83.84 41.57-152.179h-223.44c.65-26.461 7.84-47.032 21.59-61.731 13.76-14.707 30.89-22.059 51.42-22.059 13.97 0 25.71 3.809 35.23 11.418 9.52 7.622 16.71 19.891 21.58 36.821m352.28 54.59c-11.42-3.809-29.51-8.36-54.26-13.637-24.76-5.301-40.95-10.481-48.57-15.563-11.63-8.25-17.45-18.718-17.45-31.41 0-12.5 4.65-23.289 13.97-32.39 9.3-9.09 21.15-13.637 35.54-13.637 16.08 0 31.42 5.277 46.03 15.867 10.78 8.043 17.87 17.883 21.26 29.512 2.32 7.621 3.48 22.109 3.48 43.488zm-119.33 72.363-80.93 14.598c9.09 32.582 24.76 56.699 46.97 72.371 22.22 15.648 55.23 23.48 99.03 23.48 39.77 0 69.39-4.699 88.86-14.121 19.47-9.418 33.17-21.379 41.11-35.871 7.93-14.488 11.89-41.09 11.89-79.82l-.95-104.098c0-29.621 1.43-51.473 4.29-65.539 2.85-14.07 8.19-29.152 16.03-45.223h-88.24c-2.33 5.91-5.18 14.699-8.57 26.34-1.47 5.293-2.54 8.77-3.16 10.473-15.24-14.813-31.54-25.922-48.89-33.321-17.34-7.41-35.86-11.109-55.54-11.109-34.7 0-62.05 9.406-82.04 28.238-20 18.84-30 42.641-30 71.418 0 19.043 4.55 36.024 13.65 50.934 9.1 14.93 21.85 26.348 38.25 34.277 16.39 7.942 40.03 14.86 70.93 20.789 41.68 7.821 70.57 15.133 86.64 21.903v8.879c0 17.152-4.22 29.371-12.69 36.66-8.46 7.308-24.44 10.961-47.92 10.961q-23.805 0-37.14-9.36c-8.89-6.25-16.07-17.199-21.58-32.859" style="fill:#fff;fill-opacity:1;fill-rule:nonzero;stroke:none" transform="matrix(.13333 0 0 -.13333 0 293.907)"/></svg>