<svg xmlns="http://www.w3.org/2000/svg" width="1325.867" height="293.907" viewBox="0 0 1325.867 293.907"><path d="M100.293 101.059H3049.74V2103.9H100.293z" style="fill:#fff;fill-opacity:1;fill-rule:nonzero;stroke:none" transform="matrix(.13333 0 0 -.13333 0 293.907)"/><path d="M157.012 158.27H2993.03v1890.7H157.012z" style="fill:#2a3c93;fill-opacity:1;fill-rule:nonzero;stroke:none" transform="matrix(.13333 0 0 -.13333 0 293.907)"/><path d="m1514.59 1637.02 59.84 43.67 59.85-43.67-22.78 70.63 60.79 43.67h-74.93l-22.93 71.48-22.93-71.56-74.88.08 60.74-43.67zm-309.69-83.2 59.84 43.67 59.81-43.67-22.74 70.63 60.75 43.67h-74.93l-22.92 71.56-22.93-71.64-74.89.08 60.74-43.67zm-166.76-41.25-22.93-71.64-74.874.08 60.734-43.67-22.765-70.63 59.835 43.67 59.84-43.67-22.77 70.63 60.74 43.67h-74.88zm-83.117-451.49 59.807-43.67-22.736 70.62 60.736 43.68h-74.877l-22.93 71.56-22.929-71.72-74.918.16 60.777-43.68-22.769-70.62zm106.047-239.6-22.93 71.559-22.93-71.641-74.874.082 60.734-43.671-22.765-70.629 59.835 43.75 59.84-43.75-22.77 70.629 60.74 43.671zm227.03-227.031-22.93 71.481-22.89-71.559-74.92.078 60.74-43.668-22.73-70.633 59.84 43.672 59.8-43.672-22.73 70.633 60.74 43.668zm309.3-82.269-22.93 71.558-22.89-71.636-74.92.078 60.74-43.668-22.73-70.633 59.84 43.672 59.8-43.672-22.77 70.633 60.78 43.668zm309.3 82.269-22.89 71.481-22.97-71.559-74.84.078 60.7-43.668-22.73-70.633 59.84 43.672 59.84-43.672-22.81 70.633 60.78 43.668zm227.11 227.031-22.97 71.559-22.97-71.641-74.84.082 60.78-43.671L2051 707.18l59.84 43.75 59.84-43.75-22.81 70.629 60.78 43.671zm157.11 311.09H2216l-22.97 71.56-22.89-71.64-74.92.08 60.78-43.67-22.74-70.63 59.77 43.75 59.84-43.75-22.73 70.63zm-239.93 195.08 59.84 43.67 59.85-43.67-22.81 70.63 60.78 43.59h-74.85l-22.97 71.56-22.96-71.64-74.85.08 60.78-43.59zm-166.32 411.95-22.89-71.64-74.92.16 60.7-43.75-22.73-70.63 59.92 43.75 59.76-43.75-22.73 70.63 60.78 43.75h-75z" style="fill:#fbca07;fill-opacity:1;fill-rule:nonzero;stroke:none" transform="matrix(.13333 0 0 -.13333 0 293.907)"/><path d="m3717.72 1509.14 91.08-28.89c-13.96-50.78-37.18-88.5-69.66-113.14-32.49-24.66-73.69-36.98-123.63-36.98-61.77 0-112.56 21.11-152.34 63.32q-59.67 63.315-59.67 173.13c0 77.44 20 137.59 59.99 180.43 39.99 42.85 92.57 64.28 157.75 64.28 56.91 0 103.14-16.83 138.69-50.47 21.15-19.89 37.02-48.46 47.6-85.69l-92.99-22.22c-5.5 24.12-16.98 43.16-34.44 57.13-17.45 13.96-38.67 20.94-63.63 20.94-34.49 0-62.47-12.37-83.95-37.14-21.48-24.74-32.21-64.85-32.21-120.28 0-58.83 10.57-100.72 31.74-125.68 21.15-24.97 48.66-37.45 82.52-37.45 24.96 0 46.44 7.93 64.42 23.8 17.99 15.86 30.9 40.84 38.73 74.91m241.85-2.54c0-33.44 7.93-59.05 23.79-76.82 15.88-17.77 35.44-26.66 58.72-26.66s42.8 8.89 58.56 26.66 23.64 43.6 23.64 77.44q0 49.515-23.64 76.17c-15.76 17.78-35.28 26.66-58.56 26.66s-42.84-8.88-58.72-26.66c-15.86-17.77-23.79-43.36-23.79-76.79m-91.41 4.76c0 29.61 7.29 58.28 21.9 86 14.59 27.73 35.28 48.89 62.04 63.48 26.77 14.61 56.65 21.9 89.66 21.9 51 0 92.79-16.56 125.37-49.67s48.88-74.96 48.88-125.52c0-51-16.45-93.26-49.36-126.8-32.9-33.54-74.31-50.3-124.24-50.3-30.9 0-60.36 6.98-88.4 20.94-28.04 13.97-49.36 34.44-63.95 61.42-14.61 26.97-21.9 59.82-21.9 98.55m631.27-173.3v337.07h89.18v-337.07zm0 382.77v82.52h89.18v-82.52zm-250.41-45.7h49.51v25.39c0 28.34 3.01 49.51 9.04 63.47 6.03 13.97 17.14 25.33 33.32 34.12 16.19 8.78 36.66 13.18 61.42 13.18q38.085 0 74.58-11.43l-12.05-62.21c-14.18 3.38-27.83 5.08-40.95 5.08-12.91 0-22.17-3.02-27.77-9.05-5.61-6.03-8.41-17.61-8.41-34.76v-23.79h66.65v-70.15h-66.65v-266.92h-89.18v266.92h-49.51zm740.44-337.07h-89.18v172.03c0 36.38-1.91 59.93-5.71 70.61-3.81 10.68-10 19-18.57 24.92s-18.89 8.89-30.95 8.89c-15.45 0-29.3-4.24-41.57-12.7s-20.69-19.68-25.23-33.65c-4.55-13.96-6.83-39.77-6.83-77.44v-152.66h-89.19v337.07h82.84v-49.52c29.41 38.09 66.44 57.13 111.09 57.13 19.67 0 37.65-3.54 53.95-10.63 16.29-7.09 28.62-16.14 36.97-27.13 8.36-11.01 14.18-23.5 17.47-37.46 3.27-13.97 4.91-33.96 4.91-59.98zm276.44 161.87c-11.42-3.81-29.51-8.36-54.26-13.64-24.76-5.3-40.95-10.48-48.57-15.56-11.63-8.25-17.45-18.72-17.45-31.42 0-12.49 4.65-23.28 13.96-32.38 9.31-9.09 21.16-13.64 35.55-13.64 16.08 0 31.42 5.28 46.03 15.87 10.78 8.04 17.87 17.88 21.26 29.51 2.32 7.62 3.48 22.11 3.48 43.49zm-119.33 72.36-80.93 14.6c9.09 32.58 24.76 56.7 46.97 72.36q33.33 23.49 99.03 23.49c39.77 0 69.39-4.7 88.86-14.12s33.17-21.38 41.11-35.87c7.93-14.49 11.89-41.09 11.89-79.82l-.95-104.11c0-29.61 1.43-51.46 4.29-65.53 2.85-14.08 8.19-29.15 16.03-45.23h-88.24c-2.33 5.92-5.18 14.71-8.57 26.35-1.48 5.29-2.54 8.77-3.17 10.47-15.23-14.81-31.53-25.92-48.88-33.32-17.35-7.41-35.86-11.11-55.54-11.11-34.71 0-62.05 9.41-82.04 28.24-20 18.84-30 42.63-30 71.42 0 19.04 4.55 36.02 13.65 50.93 9.09 14.92 21.85 26.35 38.24 34.28 16.4 7.94 40.04 14.86 70.94 20.79 41.68 7.82 70.57 15.13 86.64 21.89v8.89q0 25.725-12.69 36.66c-8.46 7.31-24.44 10.96-47.92 10.96-15.87 0-28.25-3.13-37.14-9.37-8.89-6.25-16.08-17.19-21.58-32.85m601.44-234.23h-89.18v172.03c0 36.38-1.9 59.93-5.71 70.61s-10 19-18.56 24.92c-8.58 5.92-18.89 8.89-30.95 8.89-15.45 0-29.31-4.24-41.57-12.7-12.28-8.46-20.7-19.68-25.24-33.65-4.55-13.96-6.83-39.77-6.83-77.44v-152.66h-89.18v337.07h82.84v-49.52c29.4 38.09 66.43 57.13 111.08 57.13 19.68 0 37.66-3.54 53.96-10.63 16.29-7.09 28.61-16.14 36.97-27.13 8.36-11.01 14.18-23.5 17.46-37.46 3.27-13.97 4.91-33.96 4.91-59.98zm54.59 0v69.51l126.32 145.04c20.73 23.69 36.07 40.52 46.02 50.47-10.37-.64-24.02-1.06-40.94-1.27l-119.03-.64v73.96h278.68v-63.16l-128.87-148.54-45.38-49.2c24.75 1.48 40.1 2.23 46.02 2.23h138.06v-78.4zm360.87 0v337.07h89.18v-337.07zm0 382.77v82.52h89.18v-82.52zm366.57-220.9c-11.42-3.81-29.51-8.36-54.26-13.64-24.76-5.3-40.95-10.48-48.57-15.56-11.63-8.25-17.45-18.72-17.45-31.42 0-12.49 4.65-23.28 13.96-32.38 9.31-9.09 21.16-13.64 35.55-13.64 16.08 0 31.42 5.28 46.03 15.87 10.78 8.04 17.87 17.88 21.26 29.51 2.32 7.62 3.48 22.11 3.48 43.49zm-119.33 72.36-80.93 14.6c9.09 32.58 24.76 56.7 46.97 72.36q33.33 23.49 99.03 23.49c39.77 0 69.39-4.7 88.86-14.12s33.17-21.38 41.11-35.87c7.93-14.49 11.89-41.09 11.89-79.82l-.95-104.11c0-29.61 1.43-51.46 4.29-65.53 2.85-14.08 8.19-29.15 16.03-45.23h-88.24c-2.33 5.92-5.18 14.71-8.57 26.35-1.48 5.29-2.54 8.77-3.16 10.47-15.24-14.81-31.54-25.92-48.89-33.32-17.34-7.41-35.86-11.11-55.54-11.11-34.71 0-62.05 9.41-82.04 28.24-20 18.84-30 42.63-30 71.42 0 19.04 4.55 36.02 13.65 50.93 9.09 14.92 21.85 26.35 38.25 34.28 16.39 7.94 40.03 14.86 70.93 20.79 41.68 7.82 70.57 15.13 86.64 21.89v8.89q0 25.725-12.69 36.66c-8.46 7.31-24.44 10.96-47.92 10.96-15.87 0-28.25-3.13-37.14-9.37-8.89-6.25-16.07-17.19-21.58-32.85m449.41 102.84v-71.1h-60.94v-135.84c0-27.51.58-43.53 1.75-48.08 1.16-4.56 3.81-8.31 7.93-11.27 4.13-2.96 9.15-4.45 15.08-4.45 8.25 0 20.2 2.86 35.86 8.57l7.62-69.18c-20.74-8.89-44.22-13.33-70.45-13.33-16.09 0-30.59 2.69-43.49 8.09-12.91 5.39-22.37 12.37-28.41 20.95-6.02 8.56-10.2 20.15-12.54 34.74-1.89 10.38-2.85 31.32-2.85 62.86v146.94h-40.94v71.1h40.94v66.96l89.5 52.05v-119.01zm132.67-168.53c0-33.44 7.94-59.05 23.8-76.82 15.88-17.77 35.44-26.66 58.72-26.66 23.27 0 42.79 8.89 58.55 26.66s23.64 43.6 23.64 77.44q0 49.515-23.64 76.17c-15.76 17.78-35.28 26.66-58.55 26.66-23.28 0-42.84-8.88-58.72-26.66-15.86-17.77-23.8-43.36-23.8-76.79m-91.41 4.76c0 29.61 7.3 58.28 21.91 86q21.885 41.595 62.04 63.48c26.76 14.61 56.65 21.9 89.65 21.9 51 0 92.79-16.56 125.38-49.67 32.57-33.11 48.87-74.96 48.87-125.52 0-51-16.45-93.26-49.35-126.8s-74.32-50.3-124.25-50.3c-30.9 0-60.36 6.98-88.4 20.94-28.04 13.97-49.35 34.44-63.94 61.42-14.61 26.97-21.91 59.82-21.91 98.55M3490.47 733.898c0-35.976 4.96-62 14.92-78.078 14.38-23.281 34.48-34.91 60.3-34.91 20.52 0 37.98 8.731 52.36 26.18 14.4 17.461 21.58 43.539 21.58 78.242 0 38.707-6.97 66.598-20.93 83.629-13.97 17.027-31.86 25.551-53.65 25.551-21.16 0-38.87-8.41-53.16-25.231-14.28-16.832-21.42-41.949-21.42-75.383M3728.5 558.07h-82.83v49.512c-13.76-19.262-29.99-33.594-48.72-43.012-18.72-9.41-37.61-14.121-56.65-14.121-38.72 0-71.89 15.61-99.5 46.821-27.61 31.199-41.42 74.742-41.42 130.601 0 57.129 13.44 100.551 40.31 130.289 26.87 29.719 60.82 44.59 101.88 44.59 37.65 0 70.24-15.668 97.75-46.98v167.58h89.18zm273.91 161.86c-11.43-3.809-29.51-8.36-54.27-13.641-24.76-5.289-40.95-10.48-48.57-15.559-11.63-8.25-17.45-18.718-17.45-31.41 0-12.488 4.65-23.281 13.97-32.39 9.31-9.09 21.15-13.641 35.55-13.641q24.105.002 46.02 15.871c10.78 8.039 17.87 17.879 21.26 29.512 2.32 7.617 3.49 22.109 3.49 43.488zm-119.34 72.371-80.93 14.597c9.1 32.571 24.76 56.704 46.98 72.364 22.21 15.648 55.22 23.488 99.02 23.488 39.77 0 69.39-4.711 88.87-14.129 19.46-9.422 33.16-21.371 41.1-35.859 7.93-14.5 11.89-41.102 11.89-79.832l-.94-104.098c0-29.621 1.42-51.473 4.28-65.543s8.2-29.148 16.03-45.219h-88.23c-2.34 5.918-5.19 14.7-8.58 26.352-1.47 5.277-2.54 8.758-3.16 10.457-15.24-14.809-31.53-25.91-48.89-33.32-17.34-7.411-35.86-11.11-55.53-11.11-34.71 0-62.06 9.41-82.05 28.242-20 18.84-30 42.641-30 71.418 0 19.039 4.56 36.02 13.66 50.942 9.09 14.918 21.84 26.34 38.24 34.269 16.4 7.942 40.04 14.871 70.94 20.789 41.68 7.832 70.56 15.129 86.64 21.903v8.886c0 17.141-4.23 29.364-12.7 36.661-8.46 7.3-24.43 10.953-47.92 10.953q-23.805 0-37.14-9.364c-8.88-6.25-16.07-17.199-21.58-32.847m294.85-234.231v465.28h89.18V558.07zm180.6 0v465.28h89.18V558.07zm179.94 299.918-16.81 86.653v78.709h97.11v-78.709l-14.6-86.653zm155.22 165.362h93.94V771.352c0-39.993 1.15-65.911 3.49-77.75 4.01-19.051 13.59-34.34 28.72-45.872 15.13-11.539 35.81-17.3 62.05-17.3q39.99-.001 60.3 16.351c13.54 10.891 21.69 24.278 24.45 40.149 2.74 15.859 4.12 42.211 4.12 79.031v257.389h93.94V778.969c0-55.86-2.54-95.328-7.62-118.379-5.07-23.07-14.44-42.539-28.08-58.399-13.65-15.882-31.9-28.519-54.75-37.929s-52.69-14.121-89.51-14.121c-44.43 0-78.12 5.121-101.08 15.39-22.96 10.25-41.11 23.578-54.43 39.989-13.34 16.402-22.12 33.582-26.34 51.57-6.15 26.66-9.2 66.019-9.2 118.07zm775.98-465.28h-89.18v172.02c0 36.39-1.9 59.93-5.71 70.609-3.81 10.692-10 19-18.56 24.93-8.58 5.91-18.89 8.883-30.95 8.883-15.45 0-29.31-4.242-41.57-12.692-12.28-8.468-20.7-19.691-25.24-33.648-4.55-13.973-6.82-39.781-6.82-77.453V558.07h-89.19v337.059h82.84v-49.508c29.4 38.078 66.43 57.129 111.08 57.129 19.68 0 37.66-3.551 53.96-10.641 16.29-7.089 28.61-16.129 36.97-27.129s14.18-23.492 17.46-37.46c3.27-13.961 4.91-33.95 4.91-59.981zm90.46 0v337.059h89.18V558.07Zm0 382.762v82.518h89.18v-82.518zm251.37-214.23c0-33.43 7.94-59.043 23.8-76.813 15.88-17.777 35.44-26.66 58.72-26.66 23.27 0 42.79 8.883 58.55 26.66 15.76 17.77 23.65 43.59 23.65 77.441 0 33.008-7.89 58.399-23.65 76.168-15.76 17.774-35.28 26.661-58.55 26.661-23.28 0-42.84-8.887-58.72-26.661-15.86-17.769-23.8-43.367-23.8-76.796m-91.41 4.757c0 29.621 7.3 58.289 21.91 86q21.885 41.596 62.04 63.481c26.77 14.609 56.65 21.91 89.66 21.91 50.99 0 92.78-16.57 125.37-49.668 32.58-33.121 48.87-74.961 48.87-125.531 0-51-16.45-93.262-49.35-126.801-32.9-33.531-74.32-50.301-124.25-50.301-30.9 0-60.36 6.981-88.4 20.949-28.04 13.961-49.35 34.434-63.94 61.411-14.61 26.98-21.91 59.832-21.91 98.55m724.26-173.289h-89.18v172.02c0 36.39-1.9 59.93-5.71 70.609q-5.715 16.037-18.57 24.93c-8.57 5.91-18.88 8.883-30.94 8.883-15.45 0-29.31-4.242-41.58-12.692-12.27-8.468-20.69-19.691-25.23-33.648-4.55-13.973-6.83-39.781-6.83-77.453V558.07h-89.19v337.059h82.85v-49.508c29.4 38.078 66.43 57.129 111.08 57.129 19.68 0 37.66-3.551 53.95-10.641s28.62-16.129 36.98-27.129 14.18-23.492 17.46-37.46c3.27-13.961 4.91-33.95 4.91-59.981zm290.73 197.41c-.63 25.809-7.29 45.442-19.99 58.879-12.69 13.422-28.14 20.153-46.35 20.153-19.46 0-35.54-7.102-48.24-21.274-12.69-14.179-18.93-33.429-18.72-57.758zm-5.08-90.14 88.87-14.91c-11.42-32.59-29.46-57.399-54.11-74.43-24.66-17.031-55.5-25.551-92.52-25.551-58.61 0-101.99 19.153-130.13 57.442-22.21 30.691-33.33 69.41-33.33 116.168 0 55.863 14.61 99.601 43.81 131.23q43.8 47.461 110.76 47.461c50.15 0 89.71-16.57 118.71-49.668 28.98-33.121 42.84-83.852 41.57-152.191h-223.44c.64-26.461 7.83-47.032 21.58-61.731 13.76-14.711 30.9-22.058 51.43-22.058q20.94-.001 35.22 11.429c9.52 7.61 16.71 19.879 21.58 36.809m547.17 90.14c-.63 25.809-7.29 45.442-19.99 58.879-12.69 13.422-28.14 20.153-46.35 20.153-19.46 0-35.54-7.102-48.24-21.274-12.69-14.179-18.93-33.429-18.72-57.758zm-5.08-90.14 88.87-14.91c-11.42-32.59-29.46-57.399-54.11-74.43-24.66-17.031-55.5-25.551-92.52-25.551-58.61 0-101.99 19.153-130.13 57.442-22.21 30.691-33.33 69.41-33.33 116.168 0 55.863 14.61 99.601 43.81 131.23q43.8 47.461 110.76 47.461c50.15 0 89.71-16.57 118.71-49.668 28.98-33.121 42.84-83.852 41.57-152.191h-223.44c.64-26.461 7.83-47.032 21.58-61.731 13.76-14.711 30.9-22.058 51.43-22.058q20.94-.001 35.22 11.429c9.52 7.61 16.71 19.879 21.58 36.809m388.17-107.27v50.469c-12.28-17.988-28.41-32.168-48.4-42.539-20-10.359-41.1-15.551-63.32-15.551-22.65 0-42.96 4.973-60.94 14.922-17.99 9.938-30.99 23.91-39.03 41.899-8.05 17.98-12.07 42.839-12.07 74.582v213.277h89.19V740.25c0-47.41 1.64-76.441 4.92-87.121 3.27-10.699 9.25-19.149 17.93-25.391 8.67-6.25 19.68-9.367 33.01-9.367 15.23 0 28.87 4.18 40.94 12.539 12.06 8.352 20.32 18.719 24.75 31.102 4.45 12.379 6.67 42.687 6.67 90.929v142.188h89.19V558.07zm260.56 0h-89.17v337.059h82.83v-47.918c14.17 22.641 26.92 37.551 38.24 44.738 11.32 7.192 24.17 10.801 38.56 10.801 20.32 0 39.89-5.609 58.72-16.828l-27.61-77.75c-15.03 9.719-29 14.59-41.9 14.59-12.49 0-23.06-3.43-31.74-10.313-8.68-6.879-15.49-19.308-20.46-37.289-4.98-17.988-7.47-55.66-7.47-112.988zm238.36 168.532c0-33.43 7.94-59.043 23.8-76.813 15.88-17.777 35.44-26.66 58.72-26.66s42.8 8.883 58.56 26.66c15.76 17.77 23.64 43.59 23.64 77.441q0 49.513-23.64 76.168-23.64 26.661-58.56 26.661c-23.28 0-42.84-8.887-58.72-26.661-15.86-17.769-23.8-43.367-23.8-76.796m-91.4 4.757c0 29.621 7.29 58.289 21.9 86 14.59 27.731 35.28 48.891 62.04 63.481 26.77 14.609 56.65 21.91 89.66 21.91 51 0 92.78-16.57 125.37-49.668 32.58-33.121 48.88-74.961 48.88-125.531 0-51-16.46-93.262-49.36-126.801-32.9-33.531-74.31-50.301-124.24-50.301-30.9 0-60.37 6.981-88.4 20.949-28.04 13.961-49.36 34.434-63.95 61.411-14.61 26.98-21.9 59.832-21.9 98.55m503.36.95c0-37.879 7.51-65.848 22.54-83.95 15.02-18.089 33.32-27.129 54.9-27.129 20.74 0 37.98 8.301 51.74 24.911 13.75 16.609 20.62 43.847 20.62 81.73 0 35.328-7.09 61.559-21.26 78.711-14.18 17.129-31.74 25.707-52.68 25.707-21.8 0-39.89-8.41-54.28-25.238-14.39-16.813-21.58-41.742-21.58-74.742m-88.23 162.82h83.15v-49.508c10.8 16.918 25.39 30.668 43.81 41.258 18.4 10.57 38.82 15.871 61.25 15.871 39.14 0 72.36-15.352 99.66-46.031 27.29-30.668 40.94-73.418 40.94-128.219 0-56.281-13.76-100.031-41.27-131.23-27.5-31.211-60.83-46.821-99.97-46.821-18.62 0-35.5 3.699-50.62 11.11-15.13 7.41-31.06 20.101-47.77 38.089V429.852h-89.18zm599.85-139.649c-.64 25.809-7.3 45.442-19.99 58.879-12.7 13.422-28.15 20.153-46.35 20.153-19.46 0-35.55-7.102-48.24-21.274-12.7-14.179-18.94-33.429-18.72-57.758zm-5.08-90.14 88.87-14.91c-11.43-32.59-29.47-57.399-54.11-74.43-24.66-17.031-55.5-25.551-92.52-25.551-58.62 0-102 19.153-130.13 57.442-22.22 30.691-33.33 69.41-33.33 116.168 0 55.863 14.61 99.601 43.81 131.23 29.2 31.641 66.11 47.461 110.76 47.461 50.15 0 89.71-16.57 118.7-49.668 28.99-33.121 42.84-83.852 41.57-152.191h-223.43c.64-26.461 7.83-47.032 21.58-61.731 13.76-14.711 30.9-22.058 51.42-22.058 13.97 0 25.71 3.808 35.23 11.429 9.52 7.61 16.71 19.879 21.58 36.809m352.3 54.59c-11.43-3.809-29.52-8.36-54.27-13.641-24.76-5.289-40.95-10.48-48.57-15.559-11.63-8.25-17.45-18.718-17.45-31.41 0-12.488 4.65-23.281 13.97-32.39 9.3-9.09 21.15-13.641 35.54-13.641 16.08 0 31.42 5.293 46.03 15.871 10.78 8.039 17.87 17.879 21.26 29.512 2.32 7.617 3.49 22.109 3.49 43.488zm-119.34 72.371-80.93 14.597c9.09 32.571 24.76 56.704 46.97 72.364 22.22 15.648 55.23 23.488 99.03 23.488q59.655-.001 88.86-14.129c19.47-9.422 33.17-21.371 41.11-35.859 7.93-14.5 11.89-41.102 11.89-79.832l-.94-104.098c0-29.621 1.42-51.473 4.28-65.543 2.85-14.07 8.2-29.148 16.03-45.219h-88.23c-2.34 5.918-5.19 14.7-8.58 26.352-1.47 5.277-2.54 8.758-3.16 10.457-15.24-14.809-31.54-25.91-48.89-33.32-17.34-7.411-35.86-11.11-55.54-11.11-34.7 0-62.05 9.41-82.04 28.242-20 18.84-30 42.641-30 71.418q0 28.559 13.65 50.942 13.65 22.376 38.25 34.269c16.39 7.942 40.04 14.871 70.93 20.789 41.68 7.832 70.57 15.129 86.65 21.903v8.886c0 17.141-4.23 29.364-12.7 36.661-8.46 7.3-24.43 10.953-47.92 10.953q-23.805 0-37.14-9.364c-8.89-6.25-16.07-17.199-21.58-32.847" style="fill:#fff;fill-opacity:1;fill-rule:nonzero;stroke:none" transform="matrix(.13333 0 0 -.13333 0 293.907)"/></svg>