<svg xmlns="http://www.w3.org/2000/svg" width="1245.04" height="293.907" viewBox="0 0 1245.04 293.907"><path d="M100.293 101.059H3049.74V2103.9H100.293z" style="fill:#fff;fill-opacity:1;fill-rule:nonzero;stroke:none" transform="matrix(.13333 0 0 -.13333 0 293.907)"/><path d="M157.012 158.27H2993.03v1890.7H157.012z" style="fill:#2a3c93;fill-opacity:1;fill-rule:nonzero;stroke:none" transform="matrix(.13333 0 0 -.13333 0 293.907)"/><path d="m1514.59 1637.02 59.84 43.67 59.85-43.67-22.78 70.63 60.79 43.67h-74.93l-22.93 71.48-22.93-71.56-74.88.08 60.74-43.67zm-309.69-83.2 59.84 43.67 59.81-43.67-22.74 70.63 60.75 43.67h-74.93l-22.92 71.56-22.93-71.64-74.89.08 60.74-43.67zm-166.76-41.25-22.93-71.64-74.874.08 60.734-43.67-22.765-70.63 59.835 43.67 59.84-43.67-22.77 70.63 60.74 43.67h-74.88zm-83.117-451.49 59.807-43.67-22.736 70.62 60.736 43.68h-74.877l-22.93 71.56-22.929-71.72-74.918.16 60.777-43.68-22.769-70.62zm106.047-239.6-22.93 71.559-22.93-71.641-74.874.082 60.734-43.671-22.765-70.629 59.835 43.75 59.84-43.75-22.77 70.629 60.74 43.671zm227.03-227.031-22.93 71.481-22.89-71.559-74.92.078 60.74-43.668-22.73-70.633 59.84 43.672 59.8-43.672-22.73 70.633 60.74 43.668zm309.3-82.269-22.93 71.558-22.89-71.636-74.92.078 60.74-43.668-22.73-70.633 59.84 43.672 59.8-43.672-22.77 70.633 60.78 43.668zm309.3 82.269-22.89 71.481-22.97-71.559-74.84.078 60.7-43.668-22.73-70.633 59.84 43.672 59.84-43.672-22.81 70.633 60.78 43.668zm227.11 227.031-22.97 71.559-22.97-71.641-74.84.082 60.78-43.671L2051 707.18l59.84 43.75 59.84-43.75-22.81 70.629 60.78 43.671zm157.11 311.09H2216l-22.97 71.56-22.89-71.64-74.92.08 60.78-43.67-22.74-70.63 59.77 43.75 59.84-43.75-22.73 70.63zm-239.93 195.08 59.84 43.67 59.85-43.67-22.81 70.63 60.78 43.59h-74.85l-22.97 71.56-22.96-71.64-74.85.08 60.78-43.59zm-166.32 411.95-22.89-71.64-74.92.16 60.7-43.75-22.73-70.63 59.92 43.75 59.76-43.75-22.73 70.63 60.78 43.75h-75z" style="fill:#fbca07;fill-opacity:1;fill-rule:nonzero;stroke:none" transform="matrix(.13333 0 0 -.13333 0 293.907)"/><path d="m3702.49 1510.36 91.09-28.89c-13.97-50.78-37.19-88.5-69.67-113.15-32.48-24.66-73.68-36.97-123.62-36.97-61.78 0-112.56 21.1-152.35 63.31-39.77 42.22-59.67 99.92-59.67 173.14 0 77.44 20 137.58 59.99 180.43s92.57 64.27 157.75 64.27q85.365 0 138.69-50.46c21.15-19.9 37.02-48.46 47.61-85.7l-93-22.21c-5.5 24.12-16.97 43.16-34.44 57.12-17.45 13.97-38.67 20.95-63.63 20.95-34.49 0-62.47-12.37-83.94-37.14-21.49-24.74-32.22-64.85-32.22-120.28 0-58.83 10.58-100.73 31.74-125.69 21.15-24.96 48.66-37.45 82.52-37.45 24.96 0 46.44 7.93 64.42 23.81q26.985 23.79 38.73 74.91m241.85-2.54c0-33.44 7.94-59.05 23.8-76.82 15.88-17.77 35.44-26.66 58.72-26.66 23.27 0 42.79 8.89 58.55 26.66s23.64 43.59 23.64 77.44q0 49.515-23.64 76.17c-15.76 17.78-35.28 26.66-58.55 26.66-23.28 0-42.84-8.88-58.72-26.66-15.86-17.77-23.8-43.37-23.8-76.79m-91.41 4.75c0 29.62 7.3 58.29 21.91 86.01 14.59 27.72 35.27 48.88 62.04 63.47 26.76 14.61 56.65 21.91 89.66 21.91 50.99 0 92.78-16.57 125.37-49.67 32.57-33.11 48.87-74.96 48.87-125.53 0-50.99-16.45-93.26-49.35-126.8-32.9-33.53-74.32-50.3-124.25-50.3-30.9 0-60.36 6.98-88.4 20.95-28.04 13.96-49.35 34.43-63.94 61.42-14.61 26.97-21.91 59.82-21.91 98.54m631.27-173.29v337.06h89.18v-337.06zm0 382.76v82.52h89.18v-82.52zm-250.41-45.7h49.51v25.39c0 28.35 3.01 49.51 9.05 63.48 6.02 13.96 17.13 25.33 33.32 34.12q24.285 13.17 61.41 13.17c25.39 0 50.26-3.8 74.58-11.42l-12.05-62.21c-14.18 3.38-27.83 5.08-40.95 5.08-12.91 0-22.16-3.02-27.77-9.06-5.6-6.02-8.41-17.6-8.41-34.75v-23.8h66.65v-70.14h-66.65v-266.92h-89.18v266.92h-49.51zm740.44-337.06h-89.18v172.02c0 36.39-1.9 59.93-5.71 70.62-3.81 10.68-10 18.99-18.57 24.92-8.57 5.92-18.88 8.89-30.94 8.89-15.45 0-29.31-4.24-41.58-12.7-12.27-8.47-20.69-19.69-25.23-33.65-4.55-13.97-6.83-39.78-6.83-77.44v-152.66H4667v337.06h82.85v-49.51c29.4 38.08 66.43 57.13 111.08 57.13 19.68 0 37.66-3.55 53.95-10.64s28.62-16.13 36.98-27.12q12.54-16.515 17.46-37.47c3.27-13.96 4.91-33.95 4.91-59.98zm276.45 161.86c-11.43-3.8-29.52-8.35-54.27-13.64-24.76-5.29-40.95-10.48-48.57-15.55-11.63-8.25-17.45-18.72-17.45-31.42 0-12.49 4.65-23.28 13.97-32.38 9.3-9.1 21.15-13.65 35.54-13.65 16.08 0 31.42 5.29 46.03 15.88 10.78 8.03 17.87 17.87 21.26 29.51 2.32 7.61 3.49 22.11 3.49 43.48zm-119.34 72.37-80.93 14.6c9.09 32.58 24.76 56.7 46.97 72.36q33.33 23.49 99.03 23.49c39.77 0 69.39-4.71 88.87-14.12 19.46-9.43 33.16-21.38 41.1-35.87 7.93-14.49 11.89-41.09 11.89-79.83l-.94-104.1c0-29.62 1.42-51.46 4.28-65.54 2.85-14.07 8.2-29.14 16.03-45.22h-88.23c-2.34 5.92-5.19 14.71-8.58 26.35-1.47 5.28-2.54 8.77-3.16 10.47-15.24-14.82-31.54-25.92-48.89-33.32-17.34-7.42-35.86-11.12-55.54-11.12-34.7 0-62.05 9.42-82.04 28.25-20 18.83-30 42.63-30 71.41 0 19.04 4.55 36.03 13.66 50.94 9.09 14.92 21.84 26.35 38.24 34.28 16.39 7.94 40.04 14.86 70.94 20.79 41.67 7.82 70.56 15.12 86.64 21.89v8.89c0 17.15-4.23 29.36-12.7 36.66-8.46 7.3-24.43 10.96-47.92 10.96-15.87 0-28.25-3.13-37.14-9.37-8.88-6.25-16.07-17.2-21.58-32.85m601.45-234.23h-89.18v172.02c0 36.39-1.91 59.93-5.72 70.62-3.81 10.68-10 18.99-18.56 24.92-8.58 5.92-18.89 8.89-30.95 8.89-15.45 0-29.31-4.24-41.57-12.7-12.28-8.47-20.69-19.69-25.24-33.65-4.55-13.97-6.82-39.78-6.82-77.44v-152.66h-89.19v337.06h82.84v-49.51c29.4 38.08 66.44 57.13 111.08 57.13 19.68 0 37.66-3.55 53.96-10.64 16.29-7.09 28.61-16.13 36.97-27.12q12.54-16.515 17.46-37.47c3.27-13.96 4.92-33.95 4.92-59.98zm384.34 237.4-87.91-15.87c-2.97 17.56-9.68 30.8-20.16 39.68-10.46 8.89-24.07 13.32-40.78 13.32-22.21 0-39.94-7.67-53.16-23.01s-19.83-40.99-19.83-76.96c0-39.99 6.71-68.23 20.15-84.73 13.43-16.51 31.47-24.77 54.11-24.77 16.93 0 30.78 4.81 41.58 14.44 10.79 9.63 18.4 26.18 22.86 49.68l87.59-14.92c-9.1-40.21-26.56-70.57-52.37-91.09-25.82-20.52-60.41-30.79-103.78-30.79-49.31 0-88.61 15.55-117.91 46.66-29.31 31.1-43.96 74.15-43.96 129.17 0 55.65 14.7 98.97 44.12 129.97 29.4 31 69.19 46.5 119.33 46.5 41.05 0 73.69-8.84 97.91-26.51 24.23-17.66 41.63-44.59 52.21-80.77m67.61-237.4v337.06h89.18v-337.06zm0 382.76v82.52h89.18v-82.52zm366.57-220.9c-11.43-3.8-29.51-8.35-54.27-13.64-24.75-5.29-40.94-10.48-48.56-15.55-11.63-8.25-17.45-18.72-17.45-31.42 0-12.49 4.65-23.28 13.96-32.38s21.15-13.65 35.55-13.65c16.07 0 31.41 5.29 46.02 15.88 10.79 8.03 17.88 17.87 21.26 29.51 2.33 7.61 3.49 22.11 3.49 43.48zm-119.34 72.37-80.92 14.6c9.09 32.58 24.75 56.7 46.97 72.36s55.22 23.49 99.02 23.49c39.78 0 69.4-4.71 88.87-14.12 19.46-9.43 33.16-21.38 41.1-35.87 7.93-14.49 11.9-41.09 11.9-79.83l-.95-104.1c0-29.62 1.43-51.46 4.29-65.54 2.85-14.07 8.19-29.14 16.02-45.22h-88.23c-2.33 5.92-5.18 14.71-8.57 26.35-1.48 5.28-2.54 8.77-3.17 10.47-15.23-14.82-31.53-25.92-48.88-33.32-17.35-7.42-35.86-11.12-55.54-11.12-34.71 0-62.05 9.42-82.04 28.25-20 18.83-30 42.63-30 71.41 0 19.04 4.55 36.03 13.65 50.94 9.09 14.92 21.85 26.35 38.24 34.28 16.4 7.94 40.04 14.86 70.94 20.79 41.68 7.82 70.57 15.12 86.64 21.89v8.89c0 17.15-4.23 29.36-12.69 36.66s-24.44 10.96-47.92 10.96c-15.87 0-28.26-3.13-37.14-9.37-8.89-6.25-16.08-17.2-21.59-32.85m365.95-58.4c0-35.98 4.96-62 14.91-78.07 14.39-23.29 34.49-34.92 60.31-34.92 20.51 0 37.98 8.73 52.36 26.18 14.39 17.47 21.58 43.54 21.58 78.25 0 38.71-6.97 66.59-20.94 83.62-13.96 17.03-31.85 25.56-53.64 25.56-21.16 0-38.88-8.42-53.16-25.24-14.28-16.83-21.42-41.95-21.42-75.38m238.03-175.83h-82.83v49.51c-13.76-19.25-29.99-33.59-48.72-43-18.72-9.42-37.61-14.13-56.65-14.13-38.72 0-71.89 15.61-99.51 46.82-27.6 31.2-41.41 74.75-41.41 130.61 0 57.12 13.44 100.54 40.31 130.28 26.87 29.72 60.82 44.59 101.88 44.59 37.65 0 70.24-15.67 97.75-46.98v167.58h89.18zm158.7 168.54c0-33.44 7.94-59.05 23.8-76.82 15.88-17.77 35.44-26.66 58.72-26.66 23.27 0 42.79 8.89 58.55 26.66 15.77 17.77 23.65 43.59 23.65 77.44 0 33.01-7.88 58.4-23.65 76.17-15.76 17.78-35.28 26.66-58.55 26.66-23.28 0-42.84-8.88-58.72-26.66-15.86-17.77-23.8-43.37-23.8-76.79m-91.41 4.75c0 29.62 7.3 58.29 21.91 86.01 14.59 27.72 35.27 48.88 62.04 63.47 26.77 14.61 56.65 21.91 89.66 21.91 50.99 0 92.78-16.57 125.37-49.67 32.58-33.11 48.88-74.96 48.88-125.53 0-50.99-16.46-93.26-49.36-126.8-32.9-33.53-74.32-50.3-124.25-50.3-30.9 0-60.36 6.98-88.4 20.95-28.03 13.96-49.35 34.43-63.94 61.42-14.61 26.97-21.91 59.82-21.91 98.54m683.96.95c0-37.87 7.51-65.85 22.54-83.95q22.53-27.12 54.9-27.12c20.74 0 37.98 8.3 51.74 24.91 13.75 16.6 20.62 43.84 20.62 81.73 0 35.33-7.09 61.56-21.26 78.71-14.18 17.13-31.73 25.7-52.68 25.7-21.8 0-39.88-8.41-54.28-25.23-14.38-16.82-21.58-41.74-21.58-74.75m-88.22 162.82h83.14v-49.51c10.8 16.92 25.39 30.67 43.81 41.26 18.4 10.57 38.82 15.87 61.25 15.87 39.14 0 72.36-15.34 99.66-46.03 27.29-30.67 40.95-73.41 40.95-128.22 0-56.28-13.76-100.03-41.27-131.23-27.5-31.21-60.83-46.82-99.98-46.82-18.62 0-35.49 3.7-50.62 11.12-15.13 7.4-31.05 20.1-47.76 38.08v-169.8h-89.18zm599.85-139.65c-.63 25.81-7.29 45.44-19.99 58.88-12.7 13.43-28.14 20.16-46.35 20.16-19.46 0-35.54-7.1-48.24-21.27-12.7-14.18-18.94-33.44-18.72-57.77zm-5.08-90.14 88.87-14.91c-11.43-32.59-29.46-57.4-54.11-74.43-24.66-17.03-55.5-25.55-92.52-25.55-58.62 0-101.99 19.15-130.13 57.45-22.22 30.68-33.33 69.4-33.33 116.17 0 55.86 14.61 99.6 43.81 131.23s66.11 47.45 110.76 47.45c50.15 0 89.71-16.57 118.7-49.67 28.99-33.11 42.84-83.85 41.57-152.19h-223.43c.64-26.45 7.83-47.03 21.58-61.72 13.76-14.71 30.9-22.07 51.43-22.07q20.94 0 35.22 11.43c9.52 7.62 16.71 19.88 21.58 36.81m166.31-107.27v465.28h89.18v-465.28zm366.57 161.86c-11.42-3.8-29.51-8.35-54.26-13.64-24.76-5.29-40.95-10.48-48.57-15.55-11.63-8.25-17.45-18.72-17.45-31.42 0-12.49 4.65-23.28 13.96-32.38q13.965-13.65 35.55-13.65c16.08 0 31.42 5.29 46.03 15.88 10.78 8.03 17.87 17.87 21.26 29.51 2.32 7.61 3.48 22.11 3.48 43.48zm-119.33 72.37-80.93 14.6c9.09 32.58 24.75 56.7 46.97 72.36q33.33 23.49 99.03 23.49c39.77 0 69.39-4.71 88.86-14.12 19.47-9.43 33.17-21.38 41.11-35.87 7.93-14.49 11.89-41.09 11.89-79.83l-.95-104.1c0-29.62 1.43-51.46 4.29-65.54 2.85-14.07 8.19-29.14 16.03-45.22h-88.24c-2.33 5.92-5.18 14.71-8.57 26.35-1.48 5.28-2.54 8.77-3.17 10.47-15.23-14.82-31.53-25.92-48.88-33.32-17.35-7.42-35.86-11.12-55.54-11.12-34.71 0-62.05 9.42-82.04 28.25-20 18.83-30 42.63-30 71.41 0 19.04 4.55 36.03 13.65 50.94 9.09 14.92 21.85 26.35 38.24 34.28 16.4 7.94 40.04 14.86 70.94 20.79 41.68 7.82 70.57 15.12 86.64 21.89v8.89c0 17.15-4.23 29.36-12.69 36.66s-24.44 10.96-47.92 10.96c-15.87 0-28.25-3.13-37.14-9.37-8.89-6.25-16.08-17.2-21.58-32.85m-5303.15-548.94h93.95v-252c0-39.988 1.15-65.91 3.48-77.761 4.02-19.039 13.6-34.329 28.72-45.868 15.13-11.531 35.82-17.293 62.06-17.293 26.66 0 46.75 5.454 60.3 16.352 13.53 10.879 21.69 24.27 24.44 40.141s4.12 42.218 4.12 79.039v257.39h93.95V780.18q0-83.791-7.62-118.379c-5.08-23.063-14.44-42.531-28.09-58.391-13.65-15.879-31.89-28.519-54.74-37.93-22.85-9.421-52.7-14.121-89.51-14.121-44.44 0-78.13 5.121-101.09 15.391-22.96 10.25-41.1 23.582-54.42 39.988-13.34 16.391-22.12 33.582-26.35 51.571-6.14 26.66-9.2 66.011-9.2 118.062zm776-465.289h-89.18v172.028c0 36.382-1.91 59.929-5.71 70.613-3.81 10.687-10 19-18.57 24.918-8.57 5.922-18.89 8.89-30.95 8.89-15.45 0-29.3-4.242-41.57-12.699-12.27-8.461-20.69-19.679-25.23-33.652-4.55-13.957-6.83-39.77-6.83-77.438v-152.66h-89.19v337.071h82.84v-49.52c29.41 38.09 66.44 57.129 111.09 57.129 19.68 0 37.65-3.539 53.95-10.629 16.29-7.094 28.62-16.141 36.98-27.133 8.35-11.008 14.17-23.5 17.46-37.461 3.27-13.968 4.91-33.957 4.91-59.976zm90.46 0v337.071h89.18V559.281Zm0 382.77v82.519h89.18v-82.519zm366.57-220.903c-11.43-3.808-29.51-8.359-54.27-13.636-24.75-5.301-40.95-10.481-48.56-15.563-11.63-8.25-17.45-18.719-17.45-31.418 0-12.492 4.64-23.281 13.96-32.383 9.31-9.089 21.15-13.636 35.55-13.636 16.07 0 31.41 5.277 46.02 15.867 10.78 8.043 17.87 17.883 21.26 29.512 2.33 7.621 3.49 22.109 3.49 43.488zM4517.22 941.73h-40.63c-.21 4.872-.32 8.68-.32 11.418 0 22.231 5.4 39.313 16.18 51.262 10.8 11.95 24.65 17.94 41.59 17.94 7.4 0 14.27-.8 20.62-2.38 6.35-1.59 17.94-6.14 34.76-13.65s29.99-11.269 39.52-11.269c6.76 0 12.42 2.121 16.97 6.339 4.55 4.24 7.46 11.32 8.73 21.27h41.26c-.21-28.558-5.56-48.98-16.03-61.25-10.47-12.269-23.96-18.41-40.46-18.41-7.2 0-14.28.738-21.27 2.219-4.87 1.269-17.03 5.613-36.5 13.011-19.47 7.411-33.64 11.11-42.53 11.11-6.77 0-12.06-2.059-15.87-6.192-3.8-4.117-5.82-11.269-6.02-21.418m.62-148.218-80.92 14.597c9.09 32.582 24.75 56.7 46.97 72.371 22.22 15.649 55.22 23.481 99.02 23.481 39.78 0 69.4-4.699 88.87-14.121 19.46-9.418 33.16-21.379 41.1-35.871 7.93-14.489 11.9-41.09 11.9-79.821l-.95-104.097q0-44.433 4.29-65.539c2.85-14.071 8.19-29.153 16.02-45.231h-88.23c-2.33 5.918-5.19 14.707-8.57 26.348-1.48 5.293-2.54 8.769-3.17 10.473-15.23-14.813-31.53-25.922-48.88-33.321-17.35-7.41-35.86-11.109-55.54-11.109-34.71 0-62.05 9.41-82.04 28.238-20 18.84-30 42.641-30 71.422 0 19.039 4.55 36.02 13.65 50.93 9.09 14.929 21.84 26.347 38.24 34.277 16.4 7.941 40.04 14.859 70.94 20.793 41.68 7.816 70.57 15.129 86.64 21.898v8.879c0 17.153-4.23 29.371-12.7 36.661-8.45 7.312-24.43 10.96-47.92 10.96-15.86 0-28.25-3.121-37.13-9.371-8.89-6.25-16.08-17.187-21.59-32.847m365.63-65.692c0-33.441 7.94-59.039 23.8-76.82 15.88-17.77 35.44-26.66 58.72-26.66 23.27 0 42.79 8.89 58.55 26.66 15.76 17.781 23.65 43.602 23.65 77.441 0 33.008-7.89 58.399-23.65 76.18-15.76 17.77-35.28 26.66-58.55 26.66-23.28 0-42.84-8.89-58.72-26.66-15.86-17.781-23.8-43.371-23.8-76.801m-91.41 4.762c0 29.609 7.3 58.289 21.91 86q21.885 41.591 62.04 63.477c26.77 14.613 56.65 21.902 89.66 21.902 50.99 0 92.78-16.563 125.37-49.672 32.58-33.109 48.87-74.957 48.87-125.519 0-51-16.45-93.258-49.35-126.801-32.9-33.528-74.32-50.297-124.25-50.297-30.9 0-60.36 6.976-88.4 20.937-28.04 13.973-49.35 34.442-63.94 61.422-14.61 26.969-21.91 59.828-21.91 98.551m598.9-173.301v465.289h345v-78.711H5484.9v-103.16h233.6v-78.39h-233.6V637.68h259.95v-78.399zm654.76 0v50.469q-18.405-26.97-48.39-42.539c-20-10.359-41.11-15.539-63.32-15.539-22.65 0-42.96 4.969-60.94 14.918-17.99 9.941-31 23.91-39.03 41.89-8.05 17.981-12.08 42.852-12.08 74.579v213.293h89.19V741.461c0-47.402 1.64-76.43 4.93-87.121 3.27-10.692 9.24-19.149 17.93-25.391 8.67-6.25 19.67-9.359 33-9.359 15.24 0 28.88 4.18 40.95 12.539 12.05 8.351 20.31 18.723 24.75 31.101 4.45 12.372 6.67 42.692 6.67 90.93v142.192h89.19V559.281zm260.58 0h-89.18v337.071h82.83V848.43c14.17 22.629 26.93 37.539 38.25 44.742 11.31 7.187 24.17 10.789 38.56 10.789 20.31 0 39.88-5.602 58.72-16.82l-27.62-77.762c-15.03 9.73-28.99 14.601-41.89 14.601-12.49 0-23.07-3.441-31.74-10.308-8.68-6.891-15.5-19.32-20.47-37.301-4.98-17.98-7.46-55.652-7.46-112.98zm238.35 168.539c0-33.441 7.94-59.039 23.8-76.82 15.88-17.77 35.44-26.66 58.72-26.66 23.27 0 42.79 8.89 58.55 26.66 15.77 17.781 23.65 43.602 23.65 77.441 0 33.008-7.88 58.399-23.65 76.18-15.76 17.77-35.28 26.66-58.55 26.66-23.28 0-42.84-8.89-58.72-26.66-15.86-17.781-23.8-43.371-23.8-76.801m-91.41 4.762c0 29.609 7.3 58.289 21.91 86q21.885 41.591 62.04 63.477c26.77 14.613 56.65 21.902 89.66 21.902 50.99 0 92.78-16.563 125.37-49.672 32.58-33.109 48.88-74.957 48.88-125.519 0-51-16.46-93.258-49.36-126.801-32.9-33.528-74.32-50.297-124.25-50.297-30.9 0-60.36 6.976-88.4 20.937-28.03 13.973-49.35 34.442-63.94 61.422-14.61 26.969-21.91 59.828-21.91 98.551m503.37.938c0-37.872 7.51-65.848 22.54-83.938 15.02-18.094 33.32-27.133 54.9-27.133 20.75 0 37.98 8.301 51.74 24.91 13.75 16.602 20.63 43.852 20.63 81.731 0 35.332-7.09 61.558-21.26 78.711-14.18 17.129-31.74 25.699-52.69 25.699-21.79 0-39.88-8.398-54.27-25.23-14.39-16.821-21.59-41.739-21.59-74.75m-88.22 162.832h83.15v-49.52c10.8 16.93 25.39 30.68 43.8 41.258 18.4 10.582 38.82 15.871 61.25 15.871 39.14 0 72.37-15.34 99.66-46.02q40.95-46.018 40.95-128.23c0-56.27-13.76-100.02-41.27-131.231-27.5-31.21-60.83-46.808-99.97-46.808-18.62 0-35.5 3.699-50.63 11.109-15.12 7.399-31.05 20.098-47.76 38.09V431.059h-89.18zm599.84-139.653c-.63 25.813-7.29 45.442-19.99 58.871-12.69 13.43-28.14 20.16-46.34 20.16-19.47 0-35.55-7.101-48.25-21.269-12.69-14.18-18.93-33.441-18.72-57.762zm-5.07-90.14 88.86-14.911c-11.42-32.589-29.46-57.398-54.11-74.437-24.66-17.031-55.5-25.539-92.52-25.539-58.61 0-101.99 19.148-130.12 57.437q-33.33 46.02-33.33 116.172c0 55.86 14.6 99.598 43.8 131.231 29.2 31.629 66.12 47.449 110.77 47.449 50.14 0 89.7-16.563 118.7-49.672 28.98-33.109 42.84-83.84 41.57-152.18h-223.44c.65-26.461 7.83-47.027 21.58-61.73 13.76-14.707 30.9-22.059 51.43-22.059 13.96 0 25.7 3.809 35.22 11.418 9.53 7.621 16.71 19.891 21.59 36.821m166.3-107.278v337.071h89.18V559.281Zm0 382.77v82.519h89.18v-82.519zm366.58-220.903c-11.43-3.808-29.51-8.359-54.27-13.636-24.76-5.301-40.95-10.481-48.57-15.563-11.63-8.25-17.45-18.719-17.45-31.418 0-12.492 4.65-23.281 13.97-32.383 9.31-9.089 21.15-13.636 35.55-13.636 16.07 0 31.41 5.277 46.02 15.867 10.78 8.043 17.87 17.883 21.26 29.512 2.32 7.621 3.49 22.109 3.49 43.488zm-119.34 72.364-80.93 14.597c9.1 32.582 24.76 56.7 46.98 72.371 22.21 15.649 55.22 23.481 99.02 23.481 39.77 0 69.39-4.699 88.87-14.121 19.46-9.418 33.16-21.379 41.1-35.871 7.93-14.489 11.89-41.09 11.89-79.821l-.94-104.097c0-29.621 1.42-51.469 4.28-65.539s8.2-29.153 16.03-45.231h-88.23c-2.34 5.918-5.19 14.707-8.58 26.348-1.47 5.293-2.54 8.769-3.16 10.473-15.24-14.813-31.53-25.922-48.89-33.321-17.34-7.41-35.86-11.109-55.53-11.109q-52.065-.002-82.05 28.238c-20 18.84-30 42.641-30 71.422 0 19.039 4.56 36.02 13.66 50.93 9.09 14.929 21.84 26.347 38.24 34.277 16.4 7.941 40.04 14.859 70.94 20.793 41.68 7.816 70.56 15.129 86.64 21.898v8.879c0 17.153-4.23 29.371-12.7 36.661-8.46 7.312-24.43 10.96-47.92 10.96-15.87 0-28.25-3.121-37.14-9.371-8.88-6.25-16.07-17.187-21.58-32.847" style="fill:#fff;fill-opacity:1;fill-rule:nonzero;stroke:none" transform="matrix(.13333 0 0 -.13333 0 293.907)"/></svg>